<?xml version="1.0" encoding="UTF-8"?>
<svg id="Layer_4" xmlns="http://www.w3.org/2000/svg" version="1.1" viewBox="0 0 151.7 116.59">
  <!-- Generator: Adobe Illustrator 29.1.0, SVG Export Plug-In . SVG Version: 2.1.0 Build 142)  -->
  <defs>
    <style>
      .st0 {
        fill: #fff;
      }
    </style>
  </defs>
  <g>
    <path class="st0" d="M68.26,56.73c.63-.09.95-.14,1.58-.23.45-1.92-.03-2.44-1.67-2.2-1.03.15-1.69.61-2.52.71-1.01.12-1.62-.44-1.35-1.48.24-.93,1.03-1.61,1.96-2.09,1.23-.63,2.8-.96,3.83-1.1,5.38-.74,5.32,2.05,4.46,5.38-.77,2.98-1.17,4.48-1.96,7.52-.31,1.19-1.63,2.34-2.93,2.54-1.28.19-2.03-.54-1.86-1.63-.75,1.26-1.89,2.2-3.74,2.49-3.01.46-3.37-1.56-2.69-4.06.98-3.57,3.35-5.33,6.88-5.84ZM68.63,61.04c.16-.61.24-.91.41-1.52-.34.05-.7.08-.91.11-1.22.18-1.93.64-2.31,2.05-.25.93-.15,1.54.68,1.42,1.13-.17,1.91-1.4,2.14-2.06Z"/>
    <path class="st0" d="M84.34,54.03c.35-1.45.21-2.09-.87-1.95-.83.11-1.47.52-1.71,1.4-.85,3.46-1.3,5.18-2.17,8.71-.29,1.18-1.61,2.33-2.93,2.52-1.36.2-2.17-.63-1.87-1.82,1.2-4.69,1.81-6.96,2.96-11.56.29-1.16,1.56-2.27,2.88-2.44,1.13-.15,1.9.47,1.84,1.43.99-1.17,2.25-1.98,3.99-2.21,2.05-.27,2.88.42,3.03,1.83,1.03-1.48,2.42-2.54,4.44-2.81,3.3-.43,3.52,1.58,2.75,5.11-.66,3.07-1,4.6-1.67,7.72-.25,1.15-1.53,2.28-2.87,2.47-1.37.2-2.23-.63-1.97-1.79.7-3.11,1.05-4.62,1.74-7.67.33-1.44.17-2.07-.91-1.93-.77.1-1.56.71-1.73,1.42-.06.23-.09.51-.15.78-.72,3.1-1.09,4.64-1.83,7.81-.27,1.17-1.57,2.31-2.91,2.5-1.36.2-2.21-.63-1.92-1.8.76-3.14,1.14-4.67,1.89-7.75Z"/>
    <path class="st0" d="M106.39,51.09c.27-1.41.09-2.04-.98-1.9-.83.11-1.45.5-1.65,1.36-.67,3.37-1.01,5.03-1.69,8.45-.23,1.14-1.49,2.26-2.83,2.45-1.37.19-2.25-.62-2.01-1.77.95-4.55,1.44-6.73,2.36-11.23.23-1.14,1.46-2.22,2.78-2.39,1.13-.15,1.93.47,1.93,1.41.94-1.15,2.16-1.94,3.89-2.17,2.04-.26,2.9.43,3.13,1.81.94-1.46,2.28-2.51,4.28-2.77,3.27-.42,3.58,1.6,3.01,5.05-.49,3-.75,4.47-1.24,7.49-.18,1.11-1.39,2.2-2.71,2.38-1.35.19-2.26-.61-2.06-1.73.52-3,.79-4.46,1.31-7.43.25-1.4.05-2.03-1.02-1.89-.77.1-1.52.7-1.65,1.38-.04.22-.06.5-.11.77-.55,3.02-.83,4.51-1.38,7.56-.2,1.13-1.44,2.23-2.77,2.41-1.36.19-2.26-.61-2.04-1.75.58-3.04.87-4.51,1.45-7.51Z"/>
    <path class="st0" d="M116.66,71.4c.02-.17.07-.31.13-.48.63-1.58,4.81-11.36,5.45-12.89-.81-4.74-1.18-6.98-1.92-11.78-.03-.18,0-.34,0-.39.21-1.34,1.39-2.3,2.56-2.45,1.08-.14,1.88.45,1.96,1.34.2,2.86.31,4.39.51,6.88.01.2.29.23.35.04.83-2.65,1.32-4.24,2.21-7.26.29-.99,1.16-1.81,2.33-1.96,1.38-.18,2.15.67,2.01,1.66-.03.19-.08.38-.13.52-1.9,4.73-2.88,6.9-4.83,11.53-.96,2.36-5.3,12.55-6.26,15.04-.33.88-1.32,1.69-2.39,1.85-1.22.18-2.13-.57-1.98-1.64Z"/>
    <path class="st0" d="M136.93,42.33c-.22.84-1.07,1.53-1.97,1.64-1.11.14-1.83-.61-1.55-1.64.5-1.75.74-2.64,1.23-4.5.22-.89,1.06-1.66,1.95-1.79,1.1-.16,1.82.69,1.55,1.79-.48,1.86-.72,2.75-1.21,4.5Z"/>
    <path class="st0" d="M142.38,51.2c.11-.79-.27-1.04-1.13-1.18-.34-.06-.51-.08-.86-.14-1.72-.28-2.82-1.21-2.51-3.54.5-3.75,3.11-5.31,6.28-5.73.74-.1,1.82-.08,2.5.27.51.26.87.73.78,1.47-.15,1.17-1.05,1.65-2.06,1.78-.5.07-.98-.11-1.57-.03-1.19.15-1.58.7-1.66,1.34-.08.61.2.93.94,1.04.29.05.43.07.71.11,2.54.39,3.22,1.57,2.97,3.42-.48,3.54-2.93,5.23-6.54,5.72-.74.1-1.73.12-2.45-.12-.61-.2-1.04-.62-.93-1.38.12-.84.89-1.57,1.94-1.71.48-.06.94.03,1.62-.06,1.31-.17,1.85-.52,1.95-1.25Z"/>
  </g>
  <g>
    <path class="st0" d="M63.51,81.73c.19-.65-.09-.77-.62-.84-.21-.03-.31-.04-.52-.06-.89-.13-1.65-.46-1.26-1.72.51-1.68,2.01-2.35,3.67-2.52.5-.05,1.14-.04,1.5.11.23.09.35.26.28.51-.12.39-.51.6-.99.65-.34.04-.59-.11-1.09-.06-.85.09-1.27.39-1.46,1-.16.52.04.67.54.72.21.02.32.04.54.06,1.13.14,1.74.55,1.39,1.77-.49,1.69-1.91,2.46-3.75,2.63-.5.05-1.16.04-1.54-.12-.26-.1-.42-.28-.34-.56.11-.37.53-.63.97-.67.34-.03.65.12,1.14.07.94-.09,1.36-.34,1.55-.97Z"/>
    <path class="st0" d="M68.79,74.26c.12-.39.65-.76,1.2-.81.56-.06.91.21.79.6-.87,2.85-1.3,4.3-2.14,7.28-.14.51-.1.69.29.66.41-.03.6.2.51.53-.1.38-.48.72-1.06.81-.14.04-.35.06-.46.07-1.31.12-1.75-.29-1.38-1.59.88-3.09,1.33-4.59,2.24-7.55Z"/>
    <path class="st0" d="M72.83,73.78c.13-.42.62-.79,1.22-.85.6-.06.92.22.79.64-.03.11-.05.17-.08.28-.13.43-.65.81-1.25.87-.62.06-.9-.23-.77-.66.03-.11.05-.17.08-.28ZM72.02,76.52c.11-.39.65-.77,1.23-.83.55-.06.91.23.79.62-.67,2.32-1,3.5-1.65,5.93-.11.41-.66.8-1.22.86-.59.06-.94-.26-.83-.66.66-2.42.99-3.6,1.67-5.91Z"/>
    <path class="st0" d="M80.39,75.13c.24.07.38.25.31.51-.1.38-.47.63-.87.68-.27.04-.52-.01-.83.02-1.28.13-1.77.62-2.06,1.66-.2.74-.3,1.11-.51,1.86-.26.98.02,1.42,1.29,1.29.28-.03.58-.13.87-.13.38,0,.61.19.52.52-.09.34-.4.59-.78.72-.38.13-.82.21-1.29.26-2.51.24-3.16-.66-2.63-2.59.18-.66.27-.98.45-1.63.56-1.99,1.95-3,4.29-3.24.46-.05.91-.04,1.24.06Z"/>
    <path class="st0" d="M83.36,81.93c-2.72.26-3.4-.55-2.88-2.57.18-.69.27-1.04.45-1.72.47-1.77,1.36-2.9,3.91-3.16,2.45-.25,2.89.7,2.44,2.52-.09.37-.14.56-.23.94-.08.31-.43.54-.84.58-1.43.14-2.14.22-3.57.36-.04.14-.05.21-.09.35-.29,1.13.05,1.49,1.37,1.36.57-.06,1.06-.2,1.49-.29.5-.11.91.06.81.48-.08.33-.34.56-.72.71-.61.24-1.4.38-2.12.45ZM82.91,77.79c.87-.09,1.31-.13,2.19-.22.05-.19.07-.29.12-.48.29-1.13.16-1.51-.7-1.43-.84.09-1.19.51-1.48,1.64-.05.2-.08.29-.13.49Z"/>
    <path class="st0" d="M91.27,78.98c.15-.67-.15-.8-.72-.87-.22-.03-.33-.04-.56-.06-.96-.13-1.8-.47-1.48-1.76.43-1.72,1.99-2.4,3.73-2.58.52-.05,1.2-.04,1.6.11.25.1.39.26.33.51-.1.39-.5.61-1,.67-.36.04-.63-.11-1.16-.06-.9.09-1.33.4-1.48,1.02-.13.53.09.69.63.74.23.02.34.03.57.06,1.22.14,1.89.56,1.61,1.81-.4,1.75-1.85,2.57-3.81,2.76-.53.05-1.24.05-1.67-.11-.29-.11-.47-.29-.4-.59.09-.39.52-.66,1-.7.36-.04.71.12,1.22.07,1-.1,1.43-.36,1.59-1.02Z"/>
  </g>
  <path class="st0" d="M68.24,3.7C43.78,8.28,20.4,20.41,5.74,40.57c-4.68,7.23.47,15.02,8.45,13,8.74-2.52,17.37-5.78,26.5-6.71,3.13-.44,7.54-.18,8.64,3.32.29,1.31.09,2.2-.43,2.84h0c-.65-.14-1.32-.22-2.01-.22-4.96,0-9.01,3.85-9.34,8.72,0,.02-.01.05-.02.07h0s0,.08,0,.08c0,.17-.03.33-.03.5,0,.93.14,1.83.39,2.68v.02s0,0,0,0c.89,2.94,3.18,5.27,6.1,6.21,0,0,0,0,0,0,.13.64.09,1.4-.21,2.34-2.8,8.12-6.5,16.02-10.03,23.86-1.08,2.31-2.61,5.38-5.11,6.04-2.06.5-4.6-.67-4.56-2.51h0c3.32-.81,5.68-4.06,5.04-7.75-.46-2.7-2.6-4.9-5.29-5.43-1.97-.39-3.81.08-5.25,1.1-.14-.09-.28-.2-.41-.33-1.39-2.11-1.85-7.36.09-9.34,1.52-1.53,4.2-1.72,5.95-3.52,1.67-1.69,1.94-4.49.68-6.5-2.16-3.75-7.68-3.25-10.34-.17-3.19,3.32-3.49,8.33-2.94,12.69,1.02,7.83,4.29,15.21,7.75,22.36,3.83,8.46,8.79,9.27,14.14,2.11,8.74-11.45,15.78-25.66,21.36-38.98.01-.01.01-.02.02-.03,0-.02.02-.04.03-.06.46-.77.81-1.61,1.04-2.51,0-.01.01-.03.02-.04.07-.15.13-.3.19-.45,2.32-5.79,5.71-13.17,2.51-19.13l-.1-.15c-4.45-5.69-12.8-3.17-18.82-1.87-6.75,1.46-18.42,6.41-23.58,7.8-1.3.35-2.67.38-3.94-.05-6.47-2.19,1.02-10.09,4.43-13.04,5.21-4.95,16.6-11.94,23.04-15.5,4.57-2.51,9.2-4.97,13.94-7.13,2.41-1.03,5.96-2.79,8.1-1.08,2.8,3.4-1.63,9.65-4.82,12.04-2.47,2.16-5.91,3.49-8.18,5.97-2.12,2.38-.07,4.14,2.33,4.12,12.27-.91,23.12-12.68,24.46-24.53.69-4.86-2.17-8.16-7.31-7.73Z"/>
  <path class="st0" d="M60.24,70.05l54.33-8.1c.49-.08.67.71.13.81,0,0-54.14,9.27-54.14,9.27-1.3.2-1.64-1.75-.32-1.97h0Z"/>
</svg>