<?xml version="1.0" encoding="UTF-8"?>
<svg id="Layer_1" xmlns="http://www.w3.org/2000/svg" xmlns:xlink="http://www.w3.org/1999/xlink" version="1.1" viewBox="0 0 203.7 108.3">
  <!-- Generator: Adobe Illustrator 29.4.0, SVG Export Plug-In . SVG Version: 2.1.0 Build 152)  -->
  <defs>
    <style>
      .st0 {
        fill: none;
      }

      .st1 {
        fill: #4b7084;
      }

      .st2 {
        opacity: .4;
      }

      .st2, .st3 {
        isolation: isolate;
      }

      .st4 {
        fill: #ebefee;
      }

      .st5 {
        fill: #718478;
      }

      .st6 {
        clip-path: url(#clippath-1);
      }

      .st7 {
        stroke: #000;
        stroke-linecap: round;
        stroke-linejoin: round;
      }

      .st8 {
        fill: #184644;
      }

      .st9 {
        opacity: .3;
      }

      .st10 {
        display: none;
      }

      .st11 {
        clip-path: url(#clippath);
      }

      .st12 {
        fill: #d1a867;
      }
    </style>
    <clipPath id="clippath">
      <rect class="st0" x="-5.9" y="3.7" width="215.7" height="126.9"/>
    </clipPath>
    <clipPath id="clippath-1">
      <rect class="st0" x="-5.9" y="3.7" width="215.7" height="126.8"/>
    </clipPath>
  </defs>
  <g id="Layer_2" class="st10">
    <g class="st9">
      <g class="st11">
        <g class="st6">
          <image class="st3" width="1926" height="1134" transform="translate(-5.9 3.6) scale(.1)" xlink:href="The Peel Logo-1.png"/>
        </g>
      </g>
    </g>
  </g>
  <g id="Layer_3" class="st10">
    <path class="st2" d="M143.5,39.3l4.1-5.6,1.5-6.7-2.7-6.4-4.8-3.1-5.8-1.4h-6c0,.1,0-.7,0-.7l-5.3.4-.4.3.2,7.3-1.3,7.3.4,7.3-.7,7.3.2,7.3-1,7.3.4,7.4-.2,7.3v.9l5.1.5v-.9l.6-6.5.6-6.5.3-6.5-.3-6.5.8-6.4h.6l7-1,6.6-2.6v.2h0ZM129.1,36.4l-.5-.2.6-6.6.4-6.6h8.1l2.9,4.2v.7c0,.8,0,1.6-.1,2.4v1.1l-3,4.5-8.5.6h.1Z"/>
    <polygon class="st2" points="142.2 48.1 149 48.6 149.8 47.9 149.9 44.8 149.5 44.4 138.2 44.3 137.7 44.6 136.3 55 134.7 65.3 132.6 75.6 133.5 76.3 144.6 78.4 144.8 78.2 145.6 74.5 145.2 73.8 138.6 72.5 137.7 71.8 139.3 62.1 140.1 61.6 144.1 61.8 145 61.1 145.4 58.4 144.7 57.9 140.9 57.5 140.4 56.8 141.8 48.5 142.2 48.1"/>
    <polygon class="st2" points="159 55 158.6 53.9 161.1 42.4 162.3 41.7 167.3 43.3 167.8 43.2 168.6 40.2 168.5 39.6 162.3 37.5 159.8 36.1 158 37.4 154.6 51 152.1 64.7 149.5 78.4 149.7 79 160.3 81.4 160.9 81.2 161.8 78.4 161.4 77.8 155 74.3 154 73.8 157.3 60.8 158.4 60 161.4 62.1 162.1 61.3 163.4 57.5 163.2 56.5 159 55"/>
    <polygon class="st2" points="170.4 79 171.6 68.5 173.9 58.2 176.6 48 178.8 37.7 180.3 27.3 180 27.2 173.9 24.2 173.2 23.9 172 33.8 170.4 43.6 169.2 53.4 167.5 63.2 165.9 73 164.5 82.4 172.6 85.6 180 90.6 180 90.1 182.3 84.7 182.4 84.7 170.1 79.7 170.4 79"/>
    <polygon class="st2" points="164.5 82.8 164.5 82.4 164.3 82.3 164.5 82.8"/>
    <path class="st2" d="M102.6,28.4c-.2-1.2-1.4-1.9-2.2-2.3-.2,0-.3-.2-.4-.2-.7-.4-1.2-.5-1.9-.5l-4.4-.2c-2.9-.1-5.9-.2-8.8-.3-1.4,0-2.8,0-4.1-.1h-2c-.6,0-1.2.3-1.5.8,0,.2-.2.4-.4.6-.5.7-1,1.5-1.1,2.4v2.8l-.2,10c0,4-.2,8.1-.4,12.8-.4,10.7-.5,19.5-.3,27.8,0,3.8.2,7.7.3,11.5l.2,5.9c0,.7.4,1.2.9,1.5,2.5,1.2,5.2,1.8,7.8,2.3.8.2,1.6.3,2.4.5,2.3.5,4.6.9,6.8,1.2,1,.2,2,.3,3,.5h.6c.5,0,1,.2,1.5.2h0c.9,0,1.7-.5,2.3-.9.2,0,.3-.2.5-.3.6-.3.9-1,.9-1.6s0-1.5-.2-2.2c-.2-2.7-.5-5.4-1-8.1,0-.7-.8-1.3-1.6-1.3l-5.3-.4h-2c-1.2,0-2.5,0-3.7-.3h-.5s-.4-.2-.5-.3c-.2-.2-.3-.5-.5-.7v-4l-.3-18v-.9l.7-.6c.3,0,.6,0,.9-.2h1.2c.8,0,1.6-.2,2.4-.5h.2c.5-.3,1.1-.5,1.5-1s.5-1.1.5-1.5v-.2l.3-2v-.3c0-.4.2-.9,0-1.4-.2-.9-1-1.6-1.7-2.2-.2-.2-.4-.4-.5-.5-.3-.3-.8-.5-1.3-.5h-.5l-2.9.8-.2-.4c0-.2-.2-17.3-.2-17.3h0c.2,0,8.3-.7,8.3-.7,1.1,0,2.1-.2,3.2-.3,1,0,1.9-.6,2.7-1l.6-.3c.6-.3.9-.9.9-1.5v-6.5h0ZM87,34.9h-.9c-.7,0-1.2.5-1.6.8l-.5.3h0c-.4.4-.6.8-.6,1.4l.2,18.1c0,1.2.5,2.1,1,2.9,0,.2.2.4.3.5.3.6.9.9,1.6.9s.3,0,.4,0l3.3-.8.5.5v2l-.4.2-3.4.6c-.9.2-1.4.5-2.1,1,0,0-.2,0-.3.2-.5.4-1.3.9-1.5,1.9v3.1l.3,19.2v.6c0,.7,0,1.6.3,2.3.3.5,1,1.9,2,2.4.7.3,1.5.6,2.3.7,1.3.2,2.7.3,4,.3h1.9l4,.3v3l.5,4.4h-1.1l-6.4-1.1c-2.8-.5-5.4-1.1-8.2-1.8,0,0-3.2-.8-3.3-.8h0l-.4-.2c-.2-8.5-.5-18.4-.5-28.5s.2-9.9.4-14.8c0-3.6.3-7.3.3-11l.2-14.8c.2-.2.4-.6.6-.9,5.9.1,11.8.4,17.5.6h.8c.2.1.3.2.5.3l.5.3v4.1c-.3,0-.6.3-.9.5h-.3l-10.6.8h-.3l-.3.4h.2Z"/>
    <path class="st2" d="M98.7,95.2c0-.2,0,0,0,0h0ZM101.6,28.5c0-.9-1.5-1.4-2.2-1.9-.5-.3-.8-.3-1.4-.4-4.4-.2-8.8-.3-13.2-.5-2,0-4.1,0-6.1-.1-.3,0-.5.1-.6.4-.5.8-1.2,1.7-1.4,2.6v2.7c0,3.3,0,6.7-.2,10,0,4.3-.2,8.6-.4,12.9-.4,9.2-.5,18.5-.3,27.8,0,5.8.3,11.6.5,17.4,0,.2,0,.5.4.6,3.1,1.5,6.6,2,10,2.8,3.2.8,6.5,1.2,9.7,1.7.6,0,1.3.3,1.9.3s1.6-.7,2.3-1c.2,0,.4-.4.4-.7-.3-3.4-.5-6.8-1.2-10.2,0-.3-.4-.5-.7-.5-1.8,0-3.5-.3-5.3-.4-1.9,0-4,0-5.9-.4h0c-.2,0-.4,0-.6-.2-.3,0-.5-.2-.8-.3-.2-.4-.6-.9-.8-1.2.2-1.4,0-2.9,0-4.3,0-5-.2-10.1-.3-15.1v-4h-.2.2v-.5.3c.3-.2.8-.7.9-.7h0c.2,0,.3-.2.4-.4h0c.5,0,1-.2,1.5-.3,1-.2,2-.2,2.9-.6.4-.2,1.1-.4,1.4-.8.3-.3.2-.8.3-1.2,0-.7.2-1.3.2-2s.2-.9,0-1.2c-.2-.8-1.4-1.7-2-2.3-.2-.2-.5-.2-.7-.2-1.2.3-2.5.6-3.7,1,0-.2-.2-.5-.4-.7,0-.2-.2-.4-.3-.6v-18.1c.2,0,.4-.3.6-.4h1.4c1.9,0,3.8-.3,5.7-.5,1.6,0,3.1-.2,4.7-.4,1.1,0,2-.8,2.9-1.3.2,0,.4-.4.4-.6v-3c0-1,.2-2.1,0-3.1v-.3h0ZM91.6,59.2h0ZM100.1,34.2c-.6.3-1.1.5-1.6.8h-.5c-1.7,0-3.4.3-5.1.4-1.8,0-3.6.3-5.5.4h-1.1c-.6,0-1.1.6-1.6.9h0c-.2,0-.3.3-.3.6,0,6,0,12.1.2,18.1,0,1.1.6,2,1.1,3,0,.3.5.4.8.3,1.3-.3,2.6-.7,3.9-1,.3.3.6.6.8,1,0,0,.3.3.4.5-.2.5-.2,1.4-.2,1.9v1c-.2,0-.5.3-.8.4h-.7c-1,.2-2.1.4-3.1.5-.7,0-1,.4-1.6.8-.5.4-1.3.8-1.4,1.5v9.3c0,4.3,0,8.6.2,12.9,0,.8,0,1.8.2,2.5.3.6.9,1.6,1.5,1.9s1.3.5,2,.6c1.9.3,3.9.3,5.8.5,1.6,0,3.2.2,4.8.4,0,.3,0,.6.2.8v.6c0,.8.2,1.6.2,2.4.2,1.7.3,3.3.5,5-.2,0-.4.2-.7.4,0,0-.2,0-.3.2-.4,0-1.3-.2-1.5-.2-2.2-.4-4.3-.7-6.5-1.1-2.9-.5-5.8-1.2-8.6-1.9-.9-.2-1.8-.4-2.8-.7h-.3c-.3-.2-.7-.3-1-.5-.3-9.7-.5-19.4-.5-29.1s.6-17.2.7-25.8c0-3.7,0-7.3.2-11v-4.2c.3-.2.7-1,.9-1.5,6.1.1,12.2.4,18.3.6h.9s.2.1.3.2c.2.2.4.3.7.4.2.2.5.3.7.5v5.3l.3.4h.1Z"/>
    <path class="st2" d="M84.2,66.4v-.7l1.7-1.5.3,1.8v.6s-2-.2-2-.2Z"/>
    <path class="st2" d="M85.2,66.3v-.2h0v.2Z"/>
    <path class="st2" d="M73.7,94.8c.2-7,.3-14.5.2-22.1,0-7.4-.2-14.8-.3-22.2,0-5.5-.2-11.1-.2-16.6v-5.1c0-.3,0-.6-.2-.9l-.6-1.5c-.3-.7-.9-1.2-1.6-1.2h0l-6.3.5h-.3c-.7,0-1.7.1-2.3,1.1-.5.6-.5,1.2-.5,1.7v14.4c0,2.5-.2,5.1-.3,8l-.3,7.9v5.5h-.2l-6.1-.3h-.7v-15.7c0-3.4.3-6.9.5-10.2,0-1.1,0-2.3.2-3.4l.3-7.9c0-.6-.3-1.2-.9-1.6l-.4-.2c-.5-.3-1-.6-1.7-.8-.5,0-1-.1-1.4-.2h-.6l-3.2-.3h-.6c-.4,0-.8-.1-1.3-.1s-.2,0-.3,0c-1.5.1-2.8,1.9-2.7,3.2v4.6l.5,11.2c0,1.5,0,3.2-.2,4.8,0,.7,0,1.4-.2,2.1,0,1.1-.2,2.3-.2,3.4-.2,2.2-.3,4.6-.4,6.9v32.3c0,1,0,1.8.8,3,0,0,0,.2.2.3.4.5.9,1.2,1.9,1.4h7.6c.6,0,1.1-.2,1.6-.4,0,0,.3,0,.4-.2.7-.2,1.2-.9,1.2-1.7l.2-19.4v-1.3h5.7s0,.2.2.3c0,.2.4,20.8.4,20.8v.5c0,1,0,2.2,1.3,3.1.6.4,1.2.5,1.7.6h.3l3.7.8c.2,0,.4,0,.7.2.5,0,1.1.2,1.6.3h0c1.1,0,2.7-.8,3-2.2.2-.9,0-1.8,0-2.7v-1.1l-.2.3h0ZM51.7,71.8c-.5,2.1-.5,4.3-.5,6.3v15.3h-6.5c0-.2-.3-.3-.4-.5v-29.8c0-3.9.2-7.9.5-11.8,0-1.1.2-2.1.2-3.2v-1.5c0-1.3.2-2.6.2-3.9,0-2.1,0-4.3-.2-6.4l-.3-8.5v-.5c1,.1,3.8.4,3.8.4h.7c.4,0,.9.1,1.4.1h0l-.7,15.9c0,3.4-.2,6.9-.2,10.3v11.3c0,.8.4,1.4,1.2,1.7l.4.2c.6.2,1.2.5,1.9.5h3.3l3.8.2h.5c.6,0,1.3,0,2-.9.4-.5.9-1,1-2v-1.5l.3-8.5c.3-7.7.4-15.3.4-23.6v-2c1.3,0,2.5-.2,3.8-.3.3,0,.7,0,1-.1,0,8.3.3,18,.4,27.4v25.3l-.4,15.5c-.5,0-.9-.2-1.3-.2s-.6,0-.9-.2c0,0-3.2-.6-3.3-.6l-.4-21c0-3.6-1.8-4.3-2.8-4.4-1.8-.2-3.6-.2-5.4-.2h-2.6c-.8,0-1.5.6-1.7,1.3h.8Z"/>
    <path class="st2" d="M70.4,98.4h0ZM72.9,72.8c0-7.4-.2-14.8-.3-22.2,0-7-.2-14-.3-21v-1.2h0c-.2-.4-.4-.9-.6-1.3,0-.3-.4-.6-.7-.5-2.1.2-4.2.3-6.2.5-.7,0-1.4,0-1.9.7-.3.4-.3.8-.3,1.3v14.2c0,2.7,0,5.3-.2,8,0,2.6-.2,5.3-.3,7.9,0,2-.3,3.9-.2,5.9h0c0,.2-.2.4-.3.4h-2.9c-1.4,0-2.8,0-4.2-.2,0,0-.7,0-.6,0-.3,0-.7-.2-1-.3v-16.4c0-4.6.3-9.1.5-13.6,0-2.6.2-5.2.3-7.9,0-.3-.2-.5-.4-.7-.6-.3-1.2-.7-1.8-.9-.6-.1-1.3-.1-1.9-.2-1.1,0-2.1-.2-3.2-.3-.6,0-1.4-.2-2-.2-1,0-1.9,1.3-1.8,2.2,0,1.5,0,3.1.2,4.6,0,3.7.3,7.5.4,11.2,0,2.3-.2,4.7-.4,6.9-.2,3.4-.6,6.8-.7,10.3v32.1c0,1.2,0,1.7.6,2.7.4.5.7,1.2,1.4,1.3h2.1c1.7,0,3.5.2,5.2,0,.6,0,1.2-.3,1.8-.5.3,0,.5-.4.5-.7,0-6.5,0-12.9.2-19.4v-1.3h0v-.2c0-.3,0-.6.2-.8,2.4,0,4.8.2,7.1.3,0,.3.3.6.5.8h0v7.5c0,4.6.2,9.2.3,13.8,0,1.1-.2,2.2.8,2.8s1.1.4,1.7.5c1.2.2,2.5.5,3.7.7.7,0,1.5.4,2.2.4s1.9-.6,2.1-1.4c.2-1.1,0-2.5,0-3.7.2-7.4.3-14.7.2-22h.2ZM61.7,65.2h0ZM71.5,81.7c0,5.4-.3,10.9-.4,16.3-.2,0-.4.2-.5.3h0c-.9-.2-1.8-.4-2.7-.5-1-.2-2-.4-3-.6-.6,0-.8-.2-1-.3,0-4.6-.2-9.2-.3-13.9,0-2.6,0-5.2-.2-7.8,0-1.3-.3-3.2-1.9-3.4-2.6-.3-5.3-.2-7.9-.3-.3,0-.7.2-.7.5-.5,2.4-.4,4.8-.4,7.3v14.9c-.2,0-.4,0-.7.2h-7.2c-.3-.4-.6-.8-.9-1.2v-30.1c0-5,.5-10,.8-15,0-1.8.4-3.6.3-5.3,0-3.2-.2-6.3-.3-9.5,0-1.8,0-3.6-.2-5.4v-1.1c0-.1.3-.3.3-.4,0,0,0-.1.2-.2,1,0,4.2.4,4.4.5.8,0,1.6.2,2.3.2h0c.2.2.5.3.7.4-.2,5.5-.5,11-.7,16.5-.2,4.5,0,9.1-.2,13.6v7.9c0,.3.2.6.5.7.7.2,1.4.6,2.1.6h3.2c1.2,0,2.5,0,3.7.2.8,0,1.2,0,1.8-.5.4-.5.7-.8.7-1.4v-2.2c0-2.6.2-5.2.3-7.7.3-7.9.4-15.7.4-23.6v-3c2.1,0,4.3-.3,6.4-.5,0,.3.2.5.3.8.2,9.2.3,18.4.4,27.7v11.9c0,4.5.3,9,.2,13.5l.3-.2h0Z"/>
    <path class="st2" d="M101.5,12.3v-.2h0c0-.7-.6-1.3-1.3-1.5-1.9-.4-1.9-.6-3.8-.8l-13.9-1.5c-1.5-.2-3-.3-4.6-.5-3.7-.5-7.5-.9-11.3-1l-24.8-.4h-5.8c-1.8,0-3.5-.3-5.3-.5s-1.8-.2-2.7-.3L4.2,2.9h-.2c-.7,0-1.3.4-1.6,1.2-.9,2.2-1.3,4.6-1.7,6.9,0,.6-.2,1.2-.3,1.9-.2,1,.4,1.8,1.3,2.1,2.1.5,4.3.8,6.4,1.2l1.4.2,12.6,1.9s.8.1.9.2v34.3c0,3.4.2,6.9.3,10.2,0,1.5,0,3.1.1,4.6,0,2.4.1,4.9.2,7.3,0,4.8.2,9.8.4,14.7v.4c0,.8.5,1.4,1.3,1.7,1.9.6,3.9,1.2,5.8,1.9l2,.7h.5c.7,0,1.3-.4,1.6-.9l.2-.3c.3-.6.6-1.2.7-2v-2l.9-28.8c.2-7.1,0-14.3-.2-21.3v-5.7l-.4-14.4c.2,0,.3-.2.5-.3h1.3l25.8,1.2c6.3.3,12.6.8,18.8,1.3,2.1.2,4.1.3,6.2.5l6.8.6h2.1c.8,0,1.6-.3,2.2-.6.2,0,.4-.2.5-.2.8-.3,1.2-.9,1.2-1.7l-.2-7.4h0ZM33.6,16.2c-.6.3-.9.9-.9,1.5l.8,32.8c.2,6.6,0,13.4-.3,19.9,0,2.4-.2,4.8-.2,7.2l-.4,12.7h0c-1.7-.6-3.3-1.1-5-1.7l-.4-18c0-1.9-.1-3.8-.2-5.7-.1-3.8-.2-7.8-.3-11.7V19.3c0-1.4.3-4-2-4.5-3.4-.7-6.9-1.1-10.2-1.5s-6.8-.9-10.1-1.5h-.2c.3-2,.6-3.7,1.1-5.4l19.2,2.1c1,.1,2,.2,3.1.4,3.8.4,7.6.9,11.5.9l25.3.4c4,0,8,.5,11.9.9l2.2.2,13.7,1.4c.9,0,1.7.2,2.6.2,1.6.2,1.3.3,2.9.5h.4v4.8s-.2.1-.4.2h-1.5l-23.8-1.9c-6.3-.5-12.7-.7-18.9-1-2.1,0-4.2-.2-6.3-.3l-8.7-.4h-2.1c-.9,0-1.6.5-2.3.9-.2.1-.3.2-.5.3,0,0,0,.2,0,.2Z"/>
    <path class="st2" d="M24.1,17v.2-.2ZM100.5,12.3h0c0-.3-.2-.6-.5-.6-2.2-.5-2.3-.6-4.5-.9-4.4-.5-8.7-.9-13.1-1.4-5.2-.5-10.5-1.4-15.7-1.5-8.3,0-16.5-.3-24.8-.4h-5.8c-2.7-.2-5.3-.6-8-.9-7.8-.8-15.5-1.7-23.3-2.5h-.5c-.3,0-.6.3-.7.6-1.1,2.7-1.4,5.7-1.9,8.6,0,.4,0,.8.5.9,2.5.6,5.1.9,7.7,1.3,4.2.6,8.4,1.3,12.6,1.9.5,0,1.1.2,1.7.3h0v35.3c0,4.9.2,9.9.3,14.9.2,7.3.3,14.7.5,22v.4c0,.3.2.6.5.7,2.6.8,5.2,1.7,7.8,2.6.3,0,.7,0,.8-.3.3-.7.7-1.2.8-2v-2c0-2.7.2-5.5.2-8.2.2-6.8.4-13.7.6-20.5.3-9,0-17.9-.3-26.9,0-5-.2-10-.4-15.1.4-.2.8-.4,1.2-.7h0c.4.2,1.2,0,1.7,0,2.4.1,4.9.2,7.3.3,6.1.3,12.3.6,18.4.8,8.4.4,16.7,1.1,25,1.7,2.9.2,3.8.4,6.8.6.7,0,1.3.2,2,.2s1.6-.5,2.4-.8c.3-.1.6-.4.5-.7,0-2.5,0-4.9-.2-7.4l.4-.2h0ZM97.9,19.7h-.2c-.5,0-1.1,0-1.7-.1-2.5-.2-2.9-.4-5.4-.5-6.1-.5-12.2-.9-18.4-1.4-8.4-.6-16.8-.9-25.2-1.3-2.9-.1-5.8-.3-8.7-.4-.6,0-1.3-.1-1.9,0-.9,0-1.6.7-2.4,1.1-.2.1-.4.4-.4.6.3,10.9.5,21.9.8,32.8.2,9-.3,18.1-.6,27.1,0,3.4-.2,6.7-.3,10.1v3.3l-.3.6c-2.2-.8-4.4-1.5-6.7-2.2-.2-6.2-.3-12.5-.4-18.7-.1-5.8-.4-11.6-.4-17.4V20.2c0-1.3.6-3.9-1.1-4.2-6.7-1.3-13.6-1.8-20.3-3.1-.4,0-.8-.2-1.2-.3.4-2.4.7-4.9,1.6-7.2,6.7.7,13.3,1.4,20,2.2,4.8.5,9.6,1.2,14.5,1.3,8.4.2,16.8.3,25.2.4,4.8,0,9.5.7,14.2,1.2,4.5.5,9.1,1,13.7,1.4,2.5.3,3.1.4,5.6.8h.4c.3,0,.5.1.8.2v6.3c-.4.2-.8.3-1.2.5h0Z"/>
    <path class="st2" d="M181,100.5c-.3,0-.6,0-.9-.2l-10.5-6.1s-.5-.3-.6-.3l-.4-.2-4-1.2c-.9-.3-1.8-.6-2.7-.9-1.7-.6-3.5-1.2-5.3-1.6-1.5-.3-3-.5-4.5-.7-.8,0-1.5-.2-2.3-.3l-5.2-.8h-.8c-2.1,0-4.2,0-6.1-.2h-19.2c-.4,0-1.1,0-1.7-.4-.4-.3-.8-.6-1.2-.9-.2,0-.3-.3-.5-.4l-.2-.2c-.4-.3-1-.8-1.2-1.6v-2.5l.2-5c.2-5.2.4-10,.8-14.5.3-4.1.7-8.4,1-14,0-2,.2-3.9.4-5.9l.2-2.9c0-1.6.2-3.2,0-4.8l-1-10c-.2-1.9-.2-3.3,0-4.8,0-1.1,0-2.1.2-3.2.3-4.1.6-8.4.6-12.7s.6-1.6,1.4-1.7l3.6-.6c.4,0,.7-.1,1.1-.2.8-.2,1.7-.4,2.5-.4h.2c.6,0,1.2.2,1.7.4,0,0,.3,0,.4.1l9.1,2.7c2.8.4,5.8.7,8.6,1,1.5,0,2.9.3,4.4.4l11.1.7c1.7,0,2.8.2,4.3.8,1.2.4,2.4.8,3.6,1.3,2.9,1.1,5.9,2.2,8.9,2.9l9.3,2.3c1.3.3,2.4.6,3.7,1.2l7.8,4.1c.3.2.6.3,1,.5.7.3,1.3.7,2,1,.8.5,1.3,1.2,1.8,1.8l.2.3c.7,1,.5,1.7.4,2.4l-2.8,12.5c-.7,3-1.3,6.2-1.9,9.2-.2,1.2-.5,2.3-.7,3.5-1,5.1-2.3,10.1-3.6,15-.8,3-1.6,6.1-2.3,9.2l-1.9,8.2c-.3,1.1-.7,2.1-1,3.1-.1.3-.2.6-.4.9l-3.3,8.7c0,.2-.2.5-.2.7-.2.5-.4,1.1-.6,1.6-.4.8-1.1,1.4-1.7,1.9-.2.2-.4.3-.5.5-.3.3-.8.5-1.2.5h0v-.2ZM128,84.2c4.3,0,8.7,0,12.9.3h.3c3.9,0,7.8.8,11.6,1.4,1.1.2,2.1.3,3.2.5,1.6.3,3.1.7,4.7,1.2,0,0,2.4.7,3.3,1,2,.6,3.9,1.2,5.9,1.9,1.4.5,2.7,1.3,4,2.1.5.3,1,.6,1.4.9l5.5,3.2.3-.3h.1c.7-2.2,1.6-4.3,2.4-6.4.9-2.3,1.9-4.7,2.7-7.1.3-.9.5-2,.7-3,0-.5.2-.9.3-1.4l2.1-8.9c.7-3,1.5-6,2.2-8.9.3-1.1.6-2.2.9-3.3,1-3.8,1.8-7.6,2.6-11.9.7-3.5,1.5-7.6,2.5-11.8l2-8.6c0-.1,0-.5.1-.5-.2-.2-.4-.5-.5-.8v-.2h0c-1.7-.8-3.3-1.6-4.9-2.5-.8-.4-1.6-.9-2.4-1.3l-3.4-1.8-.3-.2c-.1,0-.3-.1-.4-.2h0c-1.7-.4-3.4-.8-5-1.2s-1.6-.4-2.5-.6c-.6-.1-1.2-.3-1.8-.4-1.2-.3-2.5-.6-3.7-1-1.6-.5-3.1-1-4.6-1.6-.8-.3-1.5-.5-2.3-.8l-4.1-1.4h-.4c-.3-.2-.7-.4-1-.5h-.2c-1.4-.2-2.8-.2-4.3-.3h-2.3l-6.5-.4-7.2-.8c-.7,0-1.4-.1-2-.2-1.4-.1-2.8-.3-4.2-.5-1.5-.3-2.9-.7-4.3-1.2-.6-.2-1.2-.4-1.8-.6l-3.8-1.1h-.8c-1.5.3-2.9.6-4.4.8h-.8v2.1c0,1.6-.2,3.2-.3,4.8,0,.8,0,1.6-.2,2.3,0,.8,0,1.6-.2,2.4,0,1.6-.3,3.2-.3,4.8,0,2.3.4,4.8.7,7.1.3,2.4.7,4.8.7,7.3s0,3.7-.3,5.5c0,.9-.2,1.8-.2,2.6,0,2.1-.3,4.3-.4,6.4-.2,4.2-.6,8.5-1,12.7l-.3,3.3c-.3,3.6-.4,7.3-.5,10.9v5.7s.3.3.4.3c0,0,.5.4.7.5h9.3l.2-.3h0Z"/>
    <path class="st2" d="M202,23.2c-.5-.7-.9-1.4-1.7-1.9-1-.5-1.9-1-2.9-1.5l-7.8-4.1c-1.3-.7-2.6-.9-4-1.3-2.9-.7-5.8-1.5-8.8-2.2-4.3-1.1-8.4-2.8-12.6-4.2-1.4-.5-2.5-.6-4-.7-3-.2-6.1-.4-9.1-.5h-2c-4.4-.5-8.8-.8-13.2-1.5h-.1c-.4,0-.7-.2-1.1-.3l-4-1.2c-1.3-.4-2.6-.8-4-1.2-.6-.2-1.3-.5-1.9-.4-1.2,0-2.4.4-3.5.6-1.2.2-2.4.4-3.6.6-.3,0-.6.4-.6.7,0,5.3-.4,10.6-.8,15.9v4.6c.3,3.3.7,6.7,1,10,.2,1.7,0,3.3,0,5-.2,2.9-.4,5.9-.6,8.8-.3,4.7-.6,9.4-1,14-.4,4.8-.7,9.6-.8,14.5,0,1.7,0,3.3-.2,5,0,.7-.2,1.5,0,2.2,0,.6.6.8,1,1.2.5.4,1,.9,1.5,1.3.7.4,1.7.2,2.4.2h14.9c3,0,6,.3,9,.3h.2c.4,0,.8,0,1.2.2,1.6.2,3.2.5,4.7.7,2.3.3,4.7.5,6.9,1.1,2.7.6,5.4,1.7,8,2.5s2.6.8,4,1.2c.1,0,.5.2.5.2.2,0,.5.3.7.4,2.8,1.6,5.6,3.2,8.4,4.9.7.4,1.4.8,2.2,1.2.3.2.7,0,.9,0,.7-.6,1.6-1.2,2-2,.3-.7.6-1.5.8-2.2,1.1-2.9,2.2-5.8,3.3-8.7.5-1.3,1.1-2.6,1.4-3.9.6-2.7,1.3-5.5,1.9-8.2,1.9-8.1,4.2-16.1,5.9-24.2.8-4.2,1.6-8.5,2.6-12.7.7-2.9,1.3-5.9,2-8.8.3-1.2.5-2.4.8-3.5.2-.7.3-1.1-.2-1.7l.2-.2v-.2ZM200.9,23.7h0ZM116.4,83.7c-.3-.2,0,0,0,0h0ZM116.4,84v-.2.2ZM118.2,85.2h0c.2,0,.3.3,0,0ZM118,85.2h0ZM198.6,33.8c-.9,3.9-1.7,7.8-2.5,11.7-.8,4-1.6,8-2.6,11.9-1,4-2.1,8.1-3.1,12.2l-2.1,8.9c-.3,1.5-.6,3-1.1,4.4-1.6,4.6-3.5,9.1-5.1,13.7,0,0-.3.3-.4.4-.3.3-.6.5-.9.8-2.1-1.2-4.1-2.4-6.2-3.6-1.7-1-3.4-2.3-5.3-2.9-2.9-1-5.9-1.8-8.8-2.8-1.7-.5-3.2-1-4.9-1.3-4.9-.7-9.7-1.7-14.6-1.9-5-.2-10-.3-15-.3h-7.9c-.3-.3-.6-.5-.9-.8s-.5-.5-.8-.6v-2.5c.2-4.9.2-9.7.6-14.6.5-5.3,1-10.6,1.2-15.9,0-2.1.2-4.3.4-6.4.2-2.7.6-5.4.5-8.1,0-4.8-1.3-9.6-1.4-14.4,0-2.4.3-4.9.5-7.3,0-2.4.4-4.7.4-7.1v-2.9c2.1-.3,4.2-.6,6.2-1.1h0c.2.2.7.2,1,.3,1.3.4,2.5.8,3.8,1.1,2,.6,4,1.4,6,1.8,2,.3,4.1.5,6.2.7,2.4.3,4.8.5,7.1.8,2.2.1,4.3.3,6.5.4,2.2.1,4.6,0,6.8.4,0,0,.2,0,.3.1.4.2.9.3,1.3.5,1.4.5,2.7.9,4.1,1.4,2.3.8,4.6,1.7,6.9,2.4,1.8.5,3.6.9,5.4,1.4,2.5.6,5,1.3,7.5,1.9h.2c.3.1.6.3.8.4,1.1.6,2.3,1.2,3.4,1.8,2.4,1.2,4.8,2.6,7.2,3.8.1,0,.3.1.3.2.3.4.7,1.2,1,1.4-.1.3-.2.7-.2,1.1-.7,2.9-1.3,5.8-2,8.6h.2Z"/>
    <path class="st2" d="M108,104.7c-.7,0-1.3-.3-1.8-.5-.2,0-.4-.2-.5-.2-.8-.3-1.2-1-1.2-1.7l1-13c0-.8.2-1.7.3-2.6.2-1.8.4-3.6.3-5.3,0-2.5-.4-5.2-.6-7.7,0-1.3-.3-2.6-.4-3.9-.2-2.2-.2-4.4-.2-6.6v-10.1c0-1.3,0-2.6.2-4,0-2.6.3-5.3.4-7.9,0-1.8,0-3.8-.3-5.6,0-.9,0-1.8-.2-2.7l-.2-3.4c0-2.3-.3-4.6-.4-6.9-.2-4.3-.4-8.5-.6-12.8,0-3-.2-3.5-.3-6.4,0-.5,0-.9.4-1.2s.8-.5,1.3-.5c1,0,1.7.7,1.8,1.7v.8c0,2,.2,4,.3,6.1.2,4.3.4,8.8.7,13.3l.8,12.8c0,2.4.3,4.6.2,7,0,1.2,0,2.5-.2,3.7,0,2.4-.3,5-.3,7.5v10.3c0,2.8.2,5.5.4,7.7l.6,6.8v2.5c0,2.5-.3,5-.5,7.5,0,1.2-.2,2.5-.3,3.7l-.6,7.9,14-11c.3-.3.7-.4,1.1-.4.8,0,1.5.5,1.7,1.2s0,1.3-.6,1.8l-11.8,9.3-1,.8c-.7.5-1.3,1.1-2,1.6-.5.3-1,.5-1.5.5h0,0Z"/>
    <path class="st2" d="M122.6,90.7c-4.9,3.8-9.7,7.7-14.6,11.5-.3,0-.7-.3-1-.4.2-3,.5-5.9.7-8.9.3-3.7.7-7.4.9-11.1,0-.8,0-1.6-.2-2.4-.2-2.3-.4-4.5-.6-6.8-.2-2.6-.4-5.2-.4-7.8s-.2-6.9,0-10.4c0-3.7.4-7.5.6-11.2,0-2.4,0-4.7-.2-7.1-.3-4.2-.5-8.4-.8-12.6-.4-6.4-.7-12.9-1-19.3v-.8c0-1-1.5-1-1.5,0,.3,6.4.6,12.8,1,19.1.2,3.4.4,6.9.6,10.3.2,2.8.5,5.6.5,8.3,0,4-.4,7.9-.6,11.9v8.3c0,2.7,0,5.5.2,8.3.3,3.9.9,7.7,1,11.6,0,2.6-.4,5.4-.6,8-.3,4.1-.6,8.1-1,12.2v.8c0,.4.2.6.5.7,1,.4,2,1.1,2.9.4,1-.8,2-1.6,3-2.4,3.1-2.5,6.2-4.9,9.3-7.4.8-.6,1.6-1.3,2.5-1.9.8-.6-.3-1.7-1.1-1.1v.2h-.1Z"/>
    <rect class="st4" x="240.4" y="-46.1" width="25" height="25" rx="1.9" ry="1.9"/>
    <rect class="st5" x="269.5" y="-46.1" width="25" height="25" rx="1.9" ry="1.9"/>
    <rect class="st8" x="298.7" y="-46.1" width="25" height="25" rx="1.9" ry="1.9"/>
    <rect class="st1" x="327.8" y="-46.1" width="25" height="25" rx="1.9" ry="1.9"/>
    <rect class="st12" x="356.9" y="-46.1" width="25" height="25" rx="1.9" ry="1.9"/>
  </g>
  <g id="Layer_4">
    <path class="st7" d="M181.4,82.1l-1.3,6.7c-3.5-1-5.3-2.1-9.5-3.1-1.3-.3-2.6-.7-4-1-.3,0-.7-.2-1-.3l9.4-58.9,6.1.6-8.8,53.1s9.1,2.9,9.1,2.9Z"/>
    <path class="st7" d="M140.2,49.2l-.7,9.2,5.5.5-.5,4.1-5.3-.4-.8,11,7.2.9-.6,5.3c-2.3-.4-4.6-.9-7-1.2-1.7-.3-3.4-.6-5.1-.8l.4-4.8,2.1-28.2h.1l5,.4,9.5.7-.8,4.2-9-.8h0Z"/>
    <path class="st7" d="M158.9,42l-1.5,9.1,4.9,1-.7,5-4.9-.9-3.4,19.9,8.7,1.9-.8,5.3c-2.8-.7-5.7-1.3-8.7-2-1.3-.3-2.7-.6-4.1-.9-.3,0-.6,0-1-.2l7-43.2h.1l5,.8,9.4,1.6-1.2,4.1-8.9-1.6h0Z"/>
    <polygon points="140.9 44.6 135.9 44 135.9 44 140.9 44.6"/>
    <path class="st7" d="M129.6,17.4v-1.1h-6.1l-.2,60.2c1.7.2,4.4.3,6.1.5v-34.9c1.4,0,17.4.6,18.1-11.9.7-14.2-17.3-12.9-17.9-12.9h0ZM140.2,30.9c-.4,6.6-9.7,6.4-10.7,6.4l.2-13.1c.6,0,11.1-.7,10.6,6.8h-.1Z"/>
    <path d="M115.7,4.5l.3,80.8c0,.8.7,1.5,1.5,1.5,4.9,0,9.9.3,14.8.8,10.2.9,20.4,2.3,30.2,5s9.7,2.9,14,5.4,2.8,1.9,3.6,2.1,2.2,0,2.9-1.2.6-1.1.8-1.8l3.4-12.7c2-7.6,4-15.1,6-22.7s4.1-15.3,6.1-23l3.5-13.3c0-.2.1-.5.2-.7.5-2.4-1.2-3.4-3.1-4.1-2.9-1.1-5.8-2.1-8.8-3.1-9.9-3.4-19.8-6.4-30-8.8-5.6-1.4-15.4-3.7-24.3-4.7s-17.9-.8-19.3-.8c-2.7,0-1.9,3.1,0,3,11.4-.7,22.9,1,34,3.4s21.5,5.2,32,8.6c10.5,3.4,7.6,2.5,11.4,3.9s2.4.9,3.6,1.3,1.4.4,1.4.7-.2.8-.3,1.1l-.6,2.1-1.9,7.2c-3.9,14.7-7.8,29.5-11.7,44.2l-4.2,16-.5,1.8s-.1.6-.3.6-1.8-1.1-2.1-1.2c-1-.5-2-1.1-3-1.5-2.3-1.1-4.6-2-7-2.8-9.7-3.3-20-5-30.2-6.2s-13.2-1.2-19.8-1.3-.7,0-1,0l1.5,1.5V4.5c0-1.9-3,0-3,0Z"/>
    <path d="M98.7,105.1c-4-1.2-8.3-2.1-12.4-3.2-3.2-.6-6.5-1.1-9.8-1.7-.6-.1-1.1-.8-1.1-1.4V26.1c0-.8.7-1.5,1.5-1.5h22.2c.8,0,1.5.7,1.5,1.5v9.1c0,.8-.7,1.5-1.5,1.5h-10.9v16.8h6.3c.8,0,1.5.7,1.5,1.5v8.9c0,.8-.7,1.5-1.5,1.5h-6.3v24.2c3.8.8,7.6,1.6,11.3,2.4.6,0,1.1.8,1.1,1.4v10.3c0,.9.2,2-1.9,1.4Z"/>
    <path d="M70.1,99.5c-3.2-.6-6.5-1.1-9.8-1.7-.6,0-1.1-.8-1.1-1.4v-24.7h-5.4v23.3c0,1,0,1.8-1.9,1.4-3.2-.7-6.5-1.1-9.8-1.7-.6-.1-1.1-.8-1.1-1.4V26.1c0-.8.7-1.5,1.5-1.5h9.8c.8,0,1.5.7,1.5,1.5v34.6h5.4V26.2c0-.8.7-1.5,1.5-1.5h9.8c.4,0,.8,0,1,.4.2.2.4.5.4,1v72h0c0,1,1.3,2-1.9,1.4Z"/>
    <path d="M3.1,2.8c-.6,0-1.7,0,0,0h0Z"/>
    <path d="M99.2,19.9c-4.4-.4-4.8-.4-13.2-.8-8.4-.4-16.6-.8-25.1-1.3-8-.5-16.1-.8-24.2-1.3v75.1c0,1,1.3,2-1.9,1.4-3.2-.6-6.5-1.1-9.8-1.7-.6,0-1.1-.8-1.1-1.4V15.7h-1.2c-6.3-.3-12.6-.7-18.9-1-.8,0-1.5-.7-1.5-1.5V4.3c0-.8.6-1.5,1.4-1.5h.2c3.8,0,3.6.2,11.6.6,8,.4,15.9.9,23.9,1.3l27.6,1.5,22.8,1.2c3.2.2,6.3.4,9.5.5s1.2.7,1.3,2.2v8.3s.2,1.6-1.4,1.5Z"/>
    <path d="M105.3,6.8v98.7c0,1,1.3,2,2.3,1.3,5.1-3.7,10.1-7.5,15.2-11.2l2.2-1.6c1.5-1.1,0-3.7-1.5-2.6-5.1,3.7-10.1,7.5-15.2,11.2l-2.2,1.6,2.3,1.3V6.7c0-2.1-3.1-2.1-3.1.1h0Z"/>
  </g>
</svg>