<?xml version="1.0" encoding="UTF-8"?>
<svg id="Layer_1" data-name="Layer 1" xmlns="http://www.w3.org/2000/svg" viewBox="0 0 399.64 353.99">
  <defs>
    <style>
      .cls-1 {
        fill: #3a3a3a;
      }

      .cls-2 {
        fill: #f7a348;
      }
    </style>
  </defs>
  <path class="cls-1" d="M138.78,112.69h12.31l-1.67,35.88,30.46-19.19,5.84,10.64-32.33,16.69,32.33,16.69-5.84,10.64-30.46-19.19,1.67,35.67h-12.31l1.46-35.67-30.66,19.19-6.47-10.64,31.92-16.69-31.92-16.69,6.47-10.64,30.66,19.19-1.46-35.88Z"/>
  <path class="cls-1" d="M276.5,184.28l-15.02-24.2-15.23,24.41-10.64-7.93,18.15-21.69-27.54-6.88,4.17-12.93,26.28,10.64-1.88-28.37h13.14l-1.88,28.37,26.28-10.64,4.17,12.93-27.74,6.67,18.36,21.7-10.64,7.93Z"/>
  <polygon class="cls-2" points="140.24 164.84 149.42 164.84 151.09 200.51 138.78 200.51 140.24 164.84"/>
</svg>