<?xml version="1.0" encoding="UTF-8"?>
<svg id="Layer_1" data-name="Layer 1" xmlns="http://www.w3.org/2000/svg" viewBox="0 0 399.64 353.99">
  <defs>
    <style>
      .cls-1 {
        fill: #3a3a3a;
      }

      .cls-2 {
        fill: #f7a348;
      }

      .cls-3 {
        fill: #7193ff;
      }
    </style>
  </defs>
  <path class="cls-1" d="M160.35,111.78v95.96h23.36v13.77h-23.36v33.38h-17.31v-33.38h-70.51v-11.89l65.5-97.83h22.32ZM143.04,125.76l-51.94,81.98h51.94v-81.98Z"/>
  <path class="cls-1" d="M286.22,255.57v-36.3h-69.46v-16.27l62.58-97.21h25.45v97h22.32v16.48h-22.32v36.3h-18.57ZM286.22,125.2h-.42l-49.65,77.6h50.06v-77.6Z"/>
  <rect class="cls-3" x="304.79" y="202.8" width="22.32" height="16.48"/>
  <rect class="cls-2" x="160.35" y="207.74" width="23.36" height="13.77"/>
  <polygon class="cls-2" points="91.1 207.74 72.53 209.62 138.03 111.78 143.04 125.76 91.1 207.74"/>
  <polygon class="cls-3" points="236.16 202.8 216.76 203.01 279.34 105.8 286.22 125.2 236.16 202.8"/>
</svg>