<?xml version="1.0" encoding="UTF-8"?>
<svg id="Layer_1" data-name="Layer 1" xmlns="http://www.w3.org/2000/svg" viewBox="0 0 399.64 353.99">
  <defs>
    <style>
      .cls-1 {
        fill: #3a3a3a;
      }

      .cls-2 {
        fill: #f7a348;
      }

      .cls-3 {
        fill: #7193ff;
      }

      .cls-4 {
        stroke: #7193ff;
      }

      .cls-4, .cls-5 {
        fill: none;
        stroke-linecap: round;
        stroke-miterlimit: 10;
        stroke-width: 3px;
      }

      .cls-5 {
        stroke: #f7a348;
      }
    </style>
  </defs>
  <path class="cls-1" d="M165.23,239.59c-6.88,0-10.85-1.88-15.85-7.51,13.35-14.81,22.32-33.59,26.49-52.99l-15.44-3.13c-2.7,16.81-8.7,31.98-19.24,45.07-.05.07-.11.13-.16.2l-2.59-3.92-27.65-41.76c21.48-9.6,30.24-20.86,30.24-36.3,0-18.15-13.56-30.25-33.37-30.25-18.78,0-31.92,12.52-31.92,30.25,0,8.14,4.59,18.78,13.56,31.29-24.2,9.39-36.92,25.03-36.92,42.97,0,24.2,19.19,42.77,48.39,42.77,15.65,0,26.49-4.38,38.18-14.19,10.01,10.22,14.81,12.73,23.57,12.73,5.01,0,10.22-.63,15.85-1.46v-14.81c-5.21.83-10.01,1.04-13.14,1.04ZM108.07,122.15c11.06,0,19.4,7.71,19.4,17.94,0,9.17-4.59,16.68-23.99,25.24-8.97-13.35-12.51-21.07-12.51-26.71,0-9.38,7.3-16.47,17.1-16.47ZM102.86,242.72c-20.03,0-32.54-11.27-32.54-29.83,0-13.35,6.05-22.95,25.86-31.5l34.63,50.06c-7.72,7.51-17.1,11.27-27.95,11.27Z"/>
  <path class="cls-1" d="M322.03,228.32l-12.31-11.68c-5.21-5.42-10.64-12.1-16.27-20.02-6.46-8.97-12.1-16.48-16.69-23.37,16.48-10.64,31.92-21.9,31.92-41.93,0-16.89-10.85-29.41-32.13-29.41s-34.21,13.35-34.21,34c0,10.85,3.97,21.49,11.48,34.21-16.9,10.64-33.17,22.95-33.17,45.9,0,24.4,17.73,40.67,45.27,40.67,16.68,0,31.5-5,43.59-15.02,15.86,13.15,28.17,15.44,37.76,15.44v-17.94c-7.3,0-15.64-3.34-25.24-10.85ZM276.34,117.56c9.38,0,14.18,6.05,14.18,14.6,0,12.51-9.59,20.86-21.48,28.58-5.43-9.39-8.14-17.11-8.14-25.04,0-11.47,5.63-18.14,15.44-18.14ZM267.79,241.26c-16.68,0-28.57-9.81-28.57-25.45,0-14.6,10.22-24.2,22.73-32.96,5.01,7.51,10.85,15.85,17.53,25.03,6.46,9.18,12.51,16.48,18.14,22.53-8.76,7.51-18.98,10.85-29.83,10.85Z"/>
  <path class="cls-5" d="M138.44,247.31s7.89,8.51,13.58,10.67c7.6,2.88,19.44,1.14,25.2,0"/>
  <path class="cls-4" d="M309.3,246.68s11.77,13.73,36.57,15.18"/>
  <path class="cls-3" d="M340.59,185.14c-3.97,17.53-10.23,31.92-18.57,43.18l-12.31-11.68c5.84-8.97,10.43-20.65,13.77-35.04l17.11,3.54Z"/>
  <path class="cls-2" d="M175.87,179.09c-4.17,19.4-13.14,38.18-26.49,52.99l-8.35-10.85c10.54-13.09,16.7-28.46,19.4-45.27l15.44,3.13Z"/>
</svg>