<?xml version="1.0" encoding="UTF-8"?>
<svg id="Layer_1" data-name="Layer 1" xmlns="http://www.w3.org/2000/svg" viewBox="0 0 399.64 353.99">
  <defs>
    <style>
      .cls-1 {
        fill: #3a3a3a;
      }

      .cls-2 {
        fill: #303030;
      }

      .cls-2, .cls-3, .cls-4, .cls-5 {
        stroke-linecap: round;
        stroke-miterlimit: 10;
      }

      .cls-2, .cls-4 {
        stroke: #f7a348;
      }

      .cls-2, .cls-5 {
        stroke-width: 1.5px;
      }

      .cls-3, .cls-4 {
        stroke-width: 3px;
      }

      .cls-3, .cls-4, .cls-5 {
        fill: none;
      }

      .cls-3, .cls-5 {
        stroke: #7193ff;
      }
    </style>
  </defs>
  <path class="cls-1" d="M133.03,111.98c27.54,0,40.68,16.69,40.68,34.84,0,16.48-9.6,28.58-25.24,32.12v.42c18.36,4.17,29.62,18.57,29.62,36.3,0,26.7-20.65,39.43-42.76,39.43h-60.08V111.98h57.78ZM126.77,173.31c14.81,0,29.2-6.47,29.2-24.41,0-13.14-8.76-22.32-28.16-22.32h-34.63v46.73h33.58ZM129.69,239.85c20.65,0,30.46-10.22,30.46-25.03s-10.22-27.74-29-27.74h-37.97v52.78h36.5Z"/>
  <path class="cls-1" d="M224.72,255.08V105.3h42.35c40.47,0,58.2,12.31,58.2,37.97,0,15.44-7.51,26.28-22.32,32.12v.42c21.9,7.51,28.16,21.49,28.16,37.76,0,33.79-27.74,41.51-58.62,41.51h-47.77ZM268.11,169.55c14.6,0,37.34-2.09,37.34-24.62,0-21.07-22.32-22.53-39.84-22.53h-21.49v47.14h23.99ZM271.65,238.18c27.74,0,39.63-7.93,39.63-25.66,0-18.77-13.35-27.33-37.13-27.33h-30.04v52.98h27.54Z"/>
  <path class="cls-4" d="M178.01,143.71c.84,14.16-3.42,27.6-20.21,35.28,14.97,7.39,24.31,16.08,23.86,36.02"/>
  <path class="cls-3" d="M329.47,138.67c1.28,14.13-2.52,28.98-19.3,36.66,14.97,7.39,25.25,15.73,24.4,37.3"/>
  <line class="cls-2" x1="55.65" y1="112.05" x2="180.67" y2="112.05"/>
  <line class="cls-5" x1="210.25" y1="105.49" x2="337.51" y2="105.49"/>
  <line class="cls-2" x1="55.61" y1="255.08" x2="180.67" y2="255.08"/>
  <line class="cls-5" x1="210.25" y1="255.08" x2="333.62" y2="255.08"/>
</svg>