<?xml version="1.0" encoding="UTF-8"?>
<svg id="Layer_1" data-name="Layer 1" xmlns="http://www.w3.org/2000/svg" viewBox="0 0 399.64 353.99">
  <defs>
    <style>
      .cls-1 {
        fill: #3a3a3a;
      }

      .cls-2 {
        fill: #f7a348;
      }

      .cls-3 {
        fill: #7193ff;
      }
    </style>
  </defs>
  <circle class="cls-3" cx="258.36" cy="109.64" r="18.81"/>
  <circle class="cls-2" cx="178.87" cy="116.94" r="18.81"/>
  <path class="cls-1" d="M186.48,110.68v13.14c-4.8-.83-8.14-1.67-12.93-1.67-11.26,0-17.94,3.55-17.94,21.49v4.8h24.62v12.93h-24.62v93.04h-16.27v-93.04h-18.77v-12.93h18.77v-3.13c0-23.36,9.8-36.3,28.16-36.3,4.17,0,11.68.63,18.98,1.67Z"/>
  <path class="cls-1" d="M223.59,254.41v-93.45h-17.11v-14.6h17.11v-12.73c0-20.86,8.14-31.5,29.83-31.5,3.55,0,7.09.21,10.85.83v15.02c-2.71-.63-5.84-1.04-8.55-1.04-9.39,0-14.39,2.92-14.39,15.23v14.19h22.32v14.6h-22.32v93.45h-17.73Z"/>
</svg>