<?xml version="1.0" encoding="UTF-8"?>
<svg id="Layer_1" data-name="Layer 1" xmlns="http://www.w3.org/2000/svg" viewBox="0 0 399.64 353.99">
  <defs>
    <style>
      .cls-1 {
        fill: #3a3a3a;
      }

      .cls-2 {
        fill: #f7a348;
      }

      .cls-3 {
        fill: #303030;
        stroke: #f7a348;
      }

      .cls-3, .cls-4 {
        stroke-linecap: round;
        stroke-miterlimit: 10;
        stroke-width: 1.5px;
      }

      .cls-5 {
        fill: #7193ff;
      }

      .cls-4 {
        fill: none;
        stroke: #7193ff;
      }
    </style>
  </defs>
  <path class="cls-1" d="M259.69,89.4h-19.81v-21.48h19.81v21.48Z"/>
  <path class="cls-2" d="M162.19,93.58h-17.94v-18.36h17.94v18.36Z"/>
  <g>
    <path class="cls-1" d="M161.14,112.35v111.19c0,24.82-14.39,32.33-30.87,32.33-5.01,0-9.18-.63-14.81-2.09v-13.14c3.96,1.04,7.51,1.67,11.68,1.67,12.1,0,17.73-3.96,17.73-20.86v-109.1h16.27Z"/>
    <rect class="cls-2" x="144.25" y="75.22" width="17.94" height="18.36"/>
  </g>
  <g>
    <path class="cls-1" d="M240.92,110.26v118.07c0,8.97-4.17,13.56-12.52,13.56-3.54,0-6.46-.42-10.64-1.46v14.6c5.22,1.26,8.98,1.67,13.98,1.67,16.9,0,26.7-7.51,26.7-27.95v-118.49h-17.52Z"/>
    <rect class="cls-5" x="239.88" y="67.92" width="19.81" height="21.48"/>
  </g>
  <line class="cls-3" x1="111.07" y1="213.99" x2="184.05" y2="213.99"/>
  <line class="cls-3" x1="111.07" y1="112.35" x2="184.05" y2="112.35"/>
  <line class="cls-4" x1="213.46" y1="213.99" x2="288.57" y2="213.99"/>
  <line class="cls-4" x1="212.57" y1="109.54" x2="288.57" y2="109.54"/>
</svg>