<?xml version="1.0" encoding="UTF-8"?>
<svg id="Layer_1" data-name="Layer 1" xmlns="http://www.w3.org/2000/svg" viewBox="0 0 399.64 353.99">
  <defs>
    <style>
      .cls-1 {
        fill: #3a3a3a;
      }

      .cls-2 {
        fill: #f7a348;
      }

      .cls-3 {
        fill: #303030;
      }

      .cls-3, .cls-4, .cls-5, .cls-6 {
        stroke-linecap: round;
        stroke-miterlimit: 10;
      }

      .cls-3, .cls-5 {
        stroke: #f7a348;
      }

      .cls-3, .cls-6 {
        stroke-width: 1.5px;
      }

      .cls-7 {
        fill: #7193ff;
      }

      .cls-4, .cls-5 {
        stroke-width: 3px;
      }

      .cls-4, .cls-5, .cls-6 {
        fill: none;
      }

      .cls-4, .cls-6 {
        stroke: #7193ff;
      }
    </style>
  </defs>
  <path class="cls-2" d="M123.66,147.68v14.3l16.51,16.51h11.82c.82,0,1.62-.03,2.39-.09l-30.72-30.72ZM157.19,130.91l19.12,19.13c-1.52-9.52-7.67-17.41-19.12-19.13ZM149.48,130.56h-13.65l37.35,37.35c1.95-3.21,3.01-6.81,3.37-10.28l-27.07-27.07ZM128.48,130.56h-4.82v9.76l37,37.01c3.86-1.11,6.91-2.99,9.27-5.32l-41.45-41.45ZM123.66,169.33v9.16h9.16l-9.16-9.16Z"/>
  <path class="cls-7" d="M253.07,141.76v14.3l16.56,16.56h6.2c2.51,0,5.14-.08,7.77-.33l-30.53-30.53ZM253.07,163.41v9.21h9.21l-9.21-9.21ZM259.26,126.01h-6.19v8.65l.09-.16,36.77,36.77c3.71-.86,7.19-2.27,10.07-4.51l-40.74-40.75ZM288.56,126.95l18.88,18.88c-.97-10.56-7.36-16.69-18.88-18.88ZM280.31,126.06c-.92-.03-1.87-.05-2.84-.05h-10.87l37.01,37.01c1.86-2.58,3.17-5.85,3.69-9.97l-26.99-26.99Z"/>
  <polyline class="cls-5" points="153.42 107.97 97.77 107.97 97.77 125.53"/>
  <polyline class="cls-4" points="272.43 101.3 225.31 101.3 225.31 116.75"/>
  <line class="cls-3" x1="82.45" y1="255.08" x2="155.42" y2="255.08"/>
  <line class="cls-6" x1="209.31" y1="255.08" x2="284.42" y2="255.08"/>
  <path class="cls-1" d="M198.28,148.18c-1.9-13.38-9.79-29.18-30.29-34.42-4.48-1.15-9.57-1.79-15.32-1.79h-50.9v143.11h17.94v-58.2h34.42c27.2,0,41.42-17.14,44.15-35.37.33-2.18.49-4.37.49-6.56s-.15-4.41-.49-6.77ZM152.26,182.06h-32.55v-55.07h32.96c19.19,0,27.96,13.14,27.96,27.96,0,12.09-7.31,27.11-28.37,27.11Z"/>
  <path class="cls-1" d="M321.99,120.46c-2.4-2.74-5.28-5.11-8.64-7.1-9.12-5.41-21.77-8.06-37.93-8.06h-46.11v149.78h20.03v-62.17h24.41c5,0,9.68-.24,14.03-.74,15.62-1.76,27.04-6.71,34.21-15.04,6.08-7.04,9.12-16.48,9.12-28.44s-3.04-21.28-9.12-28.23ZM275.21,175.81h-25.87v-52.99h27.74c22.53,0,34.22,8.14,34.22,25.87,0,24.4-20.24,27.12-36.09,27.12Z"/>
</svg>