<?xml version="1.0" encoding="UTF-8"?>
<svg id="Layer_1" xmlns="http://www.w3.org/2000/svg" version="1.1" viewBox="0 0 399.6 354">
  <!-- Generator: Adobe Illustrator 30.1.0, SVG Export Plug-In . SVG Version: 2.1.1 Build 136)  -->
  <defs>
    <style>
      .st0 {
        stroke: #f7a348;
      }

      .st0, .st1 {
        fill: none;
        stroke-linecap: round;
        stroke-miterlimit: 10;
        stroke-width: 1.5px;
      }

      .st2 {
        fill: #3a3a3a;
      }

      .st3 {
        fill: #f7a348;
      }

      .st4 {
        fill: #fff;
      }

      .st5 {
        fill: #7193ff;
      }

      .st1 {
        stroke: #7193ff;
      }
    </style>
  </defs>
  <path class="st2" d="M175.7,145.4c-2.4-12.5-7.7-23.2-15.6-30.3-6.6-6-15-9.5-24.9-9.5s-17.8,3.3-24,9.5c-3.6,3.6-6.6,8.2-8.8,13.7h-.4v-20.4h-14.8v140.6h16.3v-51.3c3.1,5,6.5,9.1,10.6,12.2,5.7,4.3,12.5,6.6,21.1,6.6s14.9-2.3,21.1-6.6c9.5-6.6,16.6-18,19.4-33.6.9-4.9,1.4-10.1,1.4-15.8s-.5-10.3-1.4-15.1h0ZM131,202.6c-15,0-27.5-14.6-27.5-34v-22.7c4-15.6,15.2-25.9,28-25.9,18.4,0,27.3,17.5,27.3,42.1,0,35.5-17.7,40.5-27.7,40.5Z"/>
  <path class="st2" d="M304.8,115.5c-7-7.5-16.4-11.7-27.6-11.7s-20.4,4.1-28.3,11.7c-1.9,1.9-3.8,3.9-5.7,6.2v-15.4h-16.9v143.9h17.7v-48c2,2.1,4.1,4,6.2,5.6,7.2,5.5,15.2,8.2,24.6,8.2s18.4-2.9,25.2-8.2c12-9.4,18.8-26.4,18.8-48.8s-5-33.9-14.1-43.6ZM271.9,200.8c-10.9,0-20.9-5.8-27.9-16.3v-46.7c8.3-13.2,19.4-18.6,28.4-18.6,17.7,0,28.6,14.8,28.6,39.8s-9.8,41.7-29,41.7h0Z"/>
  <line class="st0" x1="63.6" y1="214.3" x2="193" y2="214.3"/>
  <line class="st0" x1="65.5" y1="107.8" x2="194.9" y2="107.8"/>
  <line class="st0" x1="63.6" y1="248.6" x2="193" y2="248.6"/>
  <line class="st1" x1="217.2" y1="214.3" x2="336.1" y2="214.3"/>
  <line class="st1" x1="217.2" y1="105.6" x2="336.1" y2="105.6"/>
  <line class="st1" x1="215.4" y1="249.9" x2="334.2" y2="249.9"/>
  <path class="st2" d="M271.6,191.7c-8.3-.1-15.9-4.7-21.3-12.6v-8.7l21.3,21.3Z"/>
  <path class="st2" d="M250.3,152.1l35,35c-1.8,1.6-3.9,2.8-6.3,3.6l-28.7-28.7v-9.8h0Z"/>
  <path class="st2" d="M254.1,137.6l38.2,38.2c-.8,2.5-1.9,4.8-3.1,6.7l-38.9-38.9v-.9c1.2-1.9,2.5-3.6,3.8-5.1h0Z"/>
  <path class="st2" d="M294.6,159.8c0,3.3-.2,6.3-.7,9.1l-35.4-35.4c2-1.6,4.1-2.8,6.2-3.6l29.9,29.9h0Z"/>
  <path class="st4" d="M264.6,129.9c-2.1.8-4.2,2-6.2,3.6l35.4,35.4c.4-2.8.7-5.9.7-9.1l-29.9-29.9h0ZM272.4,128.3c-.3,0-.5,0-.8,0l22.4,22.4c-2.2-14.3-10-22.5-21.6-22.5h0ZM250.3,142.7v.9l38.9,38.9c1.3-2,2.3-4.2,3.1-6.7l-38.2-38.2c-1.3,1.5-2.6,3.2-3.8,5.1h0ZM250.3,161.9l28.7,28.7c2.4-.8,4.5-2,6.3-3.6l-35-35v9.8ZM250.3,170.4v8.7c5.4,8,13,12.5,21.3,12.6l-21.3-21.3h0Z"/>
  <path class="st5" d="M264.6,129.9c-2.1.8-4.2,2-6.2,3.6l35.4,35.4c.4-2.8.7-5.9.7-9.1l-29.9-29.9h0ZM272.4,128.3c-.3,0-.5,0-.8,0l22.4,22.4c-2.2-14.3-10-22.5-21.6-22.5h0ZM250.3,142.7v.9l38.9,38.9c1.3-2,2.3-4.2,3.1-6.7l-38.2-38.2c-1.3,1.5-2.6,3.2-3.8,5.1h0ZM250.3,161.9l28.7,28.7c2.4-.8,4.5-2,6.3-3.6l-35-35v9.8ZM250.3,170.4v8.7c5.4,8,13,12.5,21.3,12.6l-21.3-21.3h0Z"/>
  <path class="st3" d="M110,171.7l21.6,21.6c-.2,0-.4,0-.6,0-10.4,0-19.2-9-21-21.6Z"/>
  <path class="st3" d="M144.6,188.1c-1.8,1.8-3.9,3-5.9,3.8l-29-29v-9.7l34.8,34.8Z"/>
  <path class="st3" d="M150.9,176.3c-.7,2.7-1.6,5-2.7,6.9l-37.4-37.4c.9-2.4,2-4.5,3.2-6.4l36.8,36.8Z"/>
  <path class="st3" d="M151.5,150.2l-20.9-20.9c.2,0,.5,0,.7,0,11.1,0,17.7,8.2,20.1,20.9Z"/>
  <path class="st3" d="M152.5,162c0,2.6-.1,4.9-.4,7.1l-34.2-34.2c1.8-1.6,3.7-2.9,5.8-3.9l28.7,28.7c0,.8,0,1.5,0,2.3h0Z"/>
</svg>