<?xml version="1.0" encoding="UTF-8"?>
<svg id="Layer_1" data-name="Layer 1" xmlns="http://www.w3.org/2000/svg" viewBox="0 0 980.01 353.99">
  <defs>
    <style>
      .cls-1 {
        stroke: #f7a348;
      }

      .cls-1, .cls-2 {
        fill: none;
        stroke-linecap: round;
        stroke-linejoin: round;
        stroke-width: 1.06px;
      }

      .cls-3 {
        fill: #3a3a3a;
      }

      .cls-2 {
        stroke: #7193ff;
      }
    </style>
  </defs>
  <g>
    <path class="cls-3" d="M77.67,92.41v63.19h70.5v-63.19h19.07v152.09h-19.07v-72.28h-70.5v72.28h-19.07V92.41h19.07Z"/>
    <path class="cls-3" d="M274.99,150.06l6.87-18.18h8.87v149.43h-17.29v-58.09h-.67c-5.54,14.41-17.51,23.5-33.7,23.5-28.38,0-44.34-25.27-44.34-58.53s17.29-59.2,45.89-59.2c16.19,0,25.5,6.65,34.37,21.06ZM243.29,231.87c9.98,0,18.18-5.32,23.72-14.85,5.76-9.75,6.21-16.63,6.21-30.6,0-15.3-1.77-22.17-5.54-28.6-5.32-8.87-13.97-14.85-24.39-14.85-19.07,0-29.27,19.95-29.27,45.01s10.42,43.9,29.27,43.9Z"/>
    <path class="cls-3" d="M330.87,131.88l23.94,38.58,24.61-38.58h16.85l-32.81,50.55,38.8,62.08h-20.4l-28.38-45.67-29.49,45.67h-17.07l37.91-58.31-34.14-54.32h20.18Z"/>
    <path class="cls-3" d="M438.62,92.41v152.09h-17.29V92.41h17.29Z"/>
  </g>
  <g>
    <path class="cls-3" d="M610.01,244.51v-72.94h-77.38v72.94h-21.28V85.32h21.28v66.96h77.38v-66.96h21.06v159.19h-21.06Z"/>
    <path class="cls-3" d="M740.16,282.64v-51.66c-9.98,10.64-20.4,15.3-33.48,15.3-28.6,0-46.12-22.84-46.12-60.08,0-35.25,16.85-59.2,44.79-59.2,15.52,0,25.94,6.21,36.14,18.85l3.77-16.18h13.75v152.98h-18.85ZM740.16,162.92c-8.65-13.97-20.18-19.51-29.93-19.51-19.29,0-30.6,16.18-30.6,43.46s10.86,43.23,30.82,43.23c11.31,0,21.95-6.21,29.71-17.52v-49.66Z"/>
    <path class="cls-3" d="M855.23,244.51l-29.04-45.23h-.44l-28.6,45.23h-20.84l39.02-60.31-35.7-54.54h21.06l25.27,39.69h.44l25.5-39.69h20.62l-35.25,54.54,38.8,60.31h-20.84Z"/>
    <path class="cls-3" d="M894.26,244.51V85.32h18.85v159.19h-18.85Z"/>
  </g>
  <line class="cls-1" x1="22.96" y1="244.51" x2="472.08" y2="244.51"/>
  <line class="cls-1" x1="24.24" y1="280.86" x2="472.08" y2="280.86"/>
  <line class="cls-1" x1="29.54" y1="131.88" x2="472.08" y2="131.88"/>
  <line class="cls-1" x1="29.19" y1="92.32" x2="471.73" y2="92.32"/>
  <line class="cls-2" x1="479.86" y1="244.51" x2="957.05" y2="244.51"/>
  <line class="cls-2" x1="479.86" y1="282.91" x2="957.05" y2="282.91"/>
  <line class="cls-2" x1="479.86" y1="129.66" x2="957.05" y2="129.66"/>
  <line class="cls-2" x1="479.86" y1="85.32" x2="957.05" y2="85.32"/>
</svg>