<?xml version="1.0" encoding="UTF-8"?>
<svg id="Layer_1" data-name="Layer 1" xmlns="http://www.w3.org/2000/svg" viewBox="0 0 399.64 353.99">
  <defs>
    <style>
      .cls-1 {
        fill: #3a3a3a;
      }

      .cls-2 {
        fill: #f7a348;
      }

      .cls-3 {
        fill: #7193ff;
      }
    </style>
  </defs>
  <path class="cls-1" d="M270.25,102.8c-40.26,0-61.32,32.75-61.32,77.39,0,47.77,22.73,77.39,61.32,77.39,10.85,0,20.45-2.5,28.79-6.88l-8.76-15.44c-5.63,3.76-12.52,5.84-20.03,5.84-25.65,0-41.51-22.53-41.51-60.7s15.86-60.7,41.51-60.7,41.31,22.73,41.31,60.7c0,17.94-3.55,32.33-9.81,42.76l10.64,17.11c12.31-13.35,18.99-34,18.99-60.08,0-44.64-20.87-77.39-61.13-77.39Z"/>
  <path class="cls-1" d="M122.71,105.56c-35.46,0-59.45,29.83-59.45,74.67,0,40.76,20.71,70.26,57.59,72.5,4.19.18,12.03-1.1,16.67-2.18v-.02c.94-.22,1.88-.47,2.79-.73,26.83-7.96,41.86-37.53,41.86-70.61,0-41.72-21.7-73.63-59.46-73.63ZM121.46,238.02c-25.86,0-39.01-23.57-39.01-57.37,0-31.71,11.27-60.28,40.47-60.28,26.08,0,40.05,24.82,40.05,59.24s-14.39,58.41-41.51,58.41Z"/>
  <path class="cls-2" d="M137.52,250.55v2.07c0,12.31,6.89,16.69,18.57,16.69,5.22,0,10.85-.42,16.69-1.46v14.18c-5.22,1.67-10.22,2.72-15.44,2.72-21.28,0-33.79-10.55-34.42-32.03"/>
  <path class="cls-3" d="M336.38,252.37v17.31c-19.61,0-30.45-8.55-37.34-18.98l-8.76-15.44c-4.8-8.76-8.97-15.64-16.9-15.64v-16.9c15.02,0,22.12,9.6,28.37,20.44l10.64,17.11c5.43,7.09,12.52,12.1,23.99,12.1Z"/>
</svg>