<?xml version="1.0" encoding="UTF-8"?>
<svg id="Layer_1" data-name="Layer 1" xmlns="http://www.w3.org/2000/svg" viewBox="0 0 399.64 353.99">
  <defs>
    <style>
      .cls-1 {
        fill: #3a3a3a;
      }

      .cls-2 {
        fill: #f7a348;
      }

      .cls-3 {
        fill: #303030;
        stroke: #f7a348;
      }

      .cls-3, .cls-4 {
        stroke-linecap: round;
        stroke-miterlimit: 10;
        stroke-width: 1.5px;
      }

      .cls-5 {
        fill: #7193ff;
      }

      .cls-4 {
        fill: none;
        stroke: #7193ff;
      }
    </style>
  </defs>
  <circle class="cls-5" cx="322.25" cy="251.46" r="18.81"/>
  <circle class="cls-2" cx="166.47" cy="251.46" r="18.81"/>
  <line class="cls-3" x1="59.12" y1="112.15" x2="184.14" y2="112.15"/>
  <line class="cls-4" x1="215.69" y1="105.59" x2="342.95" y2="105.59"/>
  <line class="cls-3" x1="59.09" y1="255.18" x2="184.14" y2="255.18"/>
  <line class="cls-4" x1="215.69" y1="255.18" x2="339.06" y2="255.18"/>
  <path class="cls-1" d="M129.29,112.71c34,0,45.68,22.32,45.68,40.05,0,16.69-9.8,31.92-26.7,36.71l28.16,66.34h-18.77l-26.7-61.96h-39.43v61.96h-17.94V112.71h55.7ZM128.24,179.25c19.82,0,28.79-12.52,28.79-26.7,0-13.14-8.14-24.41-27.74-24.41h-37.76v51.11h36.71Z"/>
  <path class="cls-1" d="M311.31,255.81l-31.71-64.46h-34.42v64.46h-20.03V106.03h46.31c38.8,0,55.91,14.39,55.91,41.51,0,20.44-11.06,32.75-28.79,38.59l35.25,69.67h-22.53ZM272.09,174.04c12.93,0,35.25-2.09,35.25-25.45s-18.15-25.03-34.21-25.03h-27.95v50.48h26.91Z"/>
</svg>