<?xml version="1.0" encoding="UTF-8"?>
<svg id="Layer_1" data-name="Layer 1" xmlns="http://www.w3.org/2000/svg" viewBox="0 0 399.64 353.99">
  <defs>
    <style>
      .cls-1 {
        fill: #3a3a3a;
      }

      .cls-2 {
        fill: #f7a348;
      }

      .cls-3 {
        fill: #7193ff;
      }
    </style>
  </defs>
  <circle class="cls-3" cx="246.14" cy="75.32" r="18.81"/>
  <circle class="cls-2" cx="147.74" cy="83.98" r="18.81"/>
  <path class="cls-1" d="M172.15,203.89c-7.08,0-11.64-1.99-14.12-6.4-1.62-2.86-2.36-6.73-2.36-11.74v-64.67h23.57v-12.93h-23.57v-27.96l-16.27,1.67v26.29h-18.78v12.93h18.78v62.37c0,9.26,1.59,16.59,4.88,22,4.67,7.76,12.82,11.59,24.74,11.59,1.67,0,7.09-.42,16.06-1.26v-12.93c-3.96.21-8.34,1.04-12.93,1.04Z"/>
  <path class="cls-1" d="M279.03,121.32v-14.6h-23.36v-35.67h-17.53v35.67h-16.06v14.6h16.06v67.17c0,8.44,1.07,14.59,3.49,18.95,3.63,6.53,10.29,9,20.92,9,6.26,0,11.26-.62,16.48-1.67v-15.22c-4.59,1.04-8.14,1.46-12.1,1.46s-6.88-1.08-8.69-3.36c-1.77-2.19-2.57-5.49-2.57-10v-66.33h23.36Z"/>
  <path class="cls-3" d="M279.03,199.55v15.22c-5.22,1.05-10.22,1.67-16.48,1.67-10.63,0-17.29-2.47-20.92-9,3.8-4.16,11-7.58,16.61-9.79,1.81,2.28,4.65,3.36,8.69,3.36s7.51-.42,12.1-1.46Z"/>
  <path class="cls-2" d="M185.08,202.85v12.93c-8.97.84-14.39,1.26-16.06,1.26-11.92,0-20.07-3.83-24.74-11.59,3.74-3.15,8.94-5.86,13.75-7.96,2.48,4.41,7.04,6.4,14.12,6.4,4.59,0,8.97-.83,12.93-1.04Z"/>
</svg>