<?xml version="1.0" encoding="UTF-8"?>
<svg id="Layer_1" data-name="Layer 1" xmlns="http://www.w3.org/2000/svg" viewBox="0 0 399.64 353.99">
  <defs>
    <style>
      .cls-1 {
        fill: #3a3a3a;
      }

      .cls-2 {
        fill: #f7a348;
      }

      .cls-3 {
        fill: #7193ff;
      }
    </style>
  </defs>
  <g>
    <path class="cls-2" d="M138.12,249.12c1.54-2.45,2.99-4.92,4.39-7.4l-43.51-43.51c1.19,5.87,2.72,11.63,4.63,17.3l33.61,33.61h.89Z"/>
    <path class="cls-2" d="M98.63,140.36c-.7,3.64-1.26,7.31-1.68,10.99l58.93,58.93c.98-3.33,1.84-6.69,2.59-10.09l-59.83-59.83Z"/>
    <path class="cls-2" d="M96.38,157.27c-.26,3.52-.39,7.04-.39,10.57,0,.59.02,1.16.03,1.75l54.86,54.86c1.25-3.05,2.4-6.13,3.44-9.23l-57.94-57.94Z"/>
    <path class="cls-2" d="M102.45,125.02c-1.01,3.3-1.91,6.63-2.69,9.99l59.77,59.77c.66-3.67,1.17-7.37,1.56-11.12l-58.65-58.65Z"/>
    <path class="cls-2" d="M96.24,176.29c.25,4.75.7,9.44,1.38,14.06l47.17,47.17c1.47-2.82,2.86-5.66,4.15-8.53l-52.7-52.7Z"/>
    <path class="cls-2" d="M107.6,225.96c3.34,7.89,7.38,15.6,12.18,23.15h10.98l-23.15-23.15Z"/>
    <path class="cls-2" d="M148.77,107.39c-2.99-6.51-6.48-12.79-10.46-18.75h-8.29l18.75,18.75Z"/>
    <path class="cls-2" d="M113.85,98.11c-1.52,2.75-2.95,5.55-4.28,8.4l52.02,52.02c-.31-4.79-.86-9.57-1.63-14.31l-46.1-46.1Z"/>
    <path class="cls-2" d="M123.54,88.64h-3.95c-1.17,1.76-2.28,3.55-3.36,5.36l42.21,42.21c-1.34-6.06-3.08-12.03-5.19-17.87l-29.7-29.7Z"/>
    <path class="cls-2" d="M161.86,165.27l-54.28-54.28c-1.28,3.01-2.45,6.06-3.53,9.15l57.53,57.53c.2-3.25.32-6.52.32-9.83,0-.86-.03-1.72-.05-2.58Z"/>
  </g>
  <g>
    <path class="cls-3" d="M235.07,150.49c-.83,2.95-1.56,6.01-2.17,9.19l63.07,63.07c1.07-2.69,2.06-5.5,2.95-8.41l-63.85-63.85Z"/>
    <path class="cls-3" d="M277.22,254.74c1.5-1.92,3.01-3.95,4.52-6.09l-49.5-49.5c.81,5.18,1.95,10.07,3.34,14.69l40.9,40.9h.74Z"/>
    <path class="cls-3" d="M239.52,137.77c-1.11,2.65-2.14,5.41-3.09,8.27l63.77,63.77c.78-3.01,1.45-6.13,1.99-9.37l-62.67-62.67Z"/>
    <path class="cls-3" d="M230.89,180.63c0,.22,0,.44,0,.67,0,3.87.19,7.61.54,11.22l52.69,52.69c1.48-2.22,2.93-4.56,4.35-7.01l-57.57-57.57Z"/>
    <path class="cls-3" d="M232.07,164.65c-.48,3.33-.83,6.77-1.02,10.33l59.49,59.49c1.3-2.44,2.55-4.98,3.72-7.63l-62.19-62.19Z"/>
    <path class="cls-3" d="M238.67,222.74c5.16,13.01,12.16,23.54,18.74,32h13.25l-32-32Z"/>
    <path class="cls-3" d="M293.81,134.77c-4.86-10.7-10.88-19.58-16.59-26.91h-10.32l26.91,26.91Z"/>
    <path class="cls-3" d="M261.09,107.86h-3.68c-1.09,1.4-2.19,2.86-3.3,4.38l47.67,47.67c-1.04-5.49-2.44-10.64-4.11-15.47l-36.59-36.59Z"/>
    <path class="cls-3" d="M245.14,126.23c-1.33,2.4-2.62,4.9-3.84,7.52l61.62,61.62c.41-3.4.68-6.92.79-10.56l-58.57-58.57Z"/>
    <path class="cls-3" d="M251.71,115.64c-1.5,2.19-2.99,4.49-4.44,6.91l56.47,56.47c-.08-4.24-.38-8.31-.87-12.22l-51.16-51.16Z"/>
  </g>
  <g>
    <path class="cls-1" d="M91.53,169.96c0-31.08,8.97-62.16,26.28-88.24h-10.84c-20.45,27.33-30.88,59.04-30.88,89.08,0,32.33,11.27,65.29,31.08,89.7h10.85c-17.73-27.96-26.49-57.79-26.49-90.54Z"/>
    <path class="cls-1" d="M149.52,81.72h-10.85c17.31,25.87,26.28,57.16,26.28,88.24,0,32.75-8.97,62.79-26.49,90.54h10.85c20.02-25.04,31.08-57.79,31.08-89.7,0-29.83-10.01-60.92-30.87-89.08Z"/>
  </g>
  <g>
    <path class="cls-1" d="M255.75,99.32h-17.73c-13.97,17.94-27.95,44.22-27.95,81.98s13.98,64.04,27.95,81.98h17.73c-13.97-17.94-29.62-44.23-29.62-81.98s15.65-64.04,29.62-81.98Z"/>
    <path class="cls-1" d="M295.59,99.32h-17.73c13.98,17.94,29.63,44.22,29.63,81.98s-15.65,64.04-29.63,81.98h17.73c13.98-17.94,27.96-44.23,27.96-81.98s-13.98-64.04-27.96-81.98Z"/>
  </g>
</svg>