<?xml version="1.0" encoding="UTF-8"?>
<svg id="Layer_1" data-name="Layer 1" xmlns="http://www.w3.org/2000/svg" viewBox="0 0 399.64 353.99">
  <defs>
    <style>
      .cls-1 {
        fill: #3a3a3a;
      }

      .cls-2 {
        fill: #f7a348;
      }

      .cls-3 {
        fill: #7193ff;
      }
    </style>
  </defs>
  <circle class="cls-3" cx="236.47" cy="123.28" r="18.81"/>
  <circle class="cls-2" cx="108.9" cy="152.92" r="18.81"/>
  <path class="cls-1" d="M161.48,241.1V111.15h-12.93c-1.42,1.8-2.88,3.53-4.39,5.21v124.74h-42.76v13.15h100.13v-13.15h-40.05Z"/>
  <path class="cls-1" d="M278.46,238.39V104.47h-12.73l-6.05,1.9v132.02h-25.86v15.86h69.67v-15.86h-25.03Z"/>
  <path class="cls-1" d="M144.16,116.36v16.48c-11.89,12.52-24.4,22.74-39.42,30.46v-17.74c15.21-7.87,28.49-17.05,39.42-29.2Z"/>
  <polygon class="cls-1" points="259.68 106.37 259.68 124.5 229.23 128.67 229.23 115.94 259.68 106.37"/>
  <rect class="cls-2" x="101.4" y="241.1" width="100.13" height="13.15"/>
  <rect class="cls-3" x="233.82" y="238.39" width="69.67" height="15.86"/>
</svg>