<?xml version="1.0" encoding="UTF-8"?>
<svg id="Layer_1" data-name="Layer 1" xmlns="http://www.w3.org/2000/svg" viewBox="0 0 399.64 353.99">
  <defs>
    <style>
      .cls-1 {
        fill: #3a3a3a;
      }

      .cls-2 {
        fill: #f7a348;
      }

      .cls-3 {
        stroke: #7193ff;
      }

      .cls-3, .cls-4 {
        fill: none;
        stroke-linecap: round;
        stroke-linejoin: round;
        stroke-width: 3px;
      }

      .cls-5 {
        fill: #7193ff;
      }

      .cls-4 {
        stroke: #f7a348;
      }
    </style>
  </defs>
  <path class="cls-1" d="M174.89,111.44l-1.46,15.44h-70.3l-3.13,46.1c9.8-9.39,20.44-15.44,34.42-15.44,28.16,0,49.86,20.86,49.86,48.6,0,30.25-23.78,50.48-54.86,50.48-22.53,0-44.02-12.72-50.27-33.79l15.44-5.21c5.84,15.65,18.15,24.82,35.04,24.82,22.74,0,37.34-14.19,37.34-36.51,0-19.61-14.19-34-33.59-34-14.19,0-26.49,7.51-33.79,19.4l-14.19-2.92,4.8-76.97h84.69Z"/>
  <path class="cls-1" d="M268.36,257.04c-22.95,0-38.38-7.72-49.44-28.58l15.65-8.97c7.51,15.44,18.15,21.28,33.38,21.28,21.49,0,34-14.19,34-36.3s-12.1-34.63-32.12-34.63c-13.98,0-22.95,6.26-29.41,18.36l-15.65-2.92,6.47-80.52h78.85v16.69h-64.67l-3.55,44.22h.42c9.8-8.34,19.4-11.47,31.71-11.47,29.2,0,46.94,19.4,46.94,50.06,0,32.75-20.65,52.78-52.57,52.78Z"/>
  <g>
    <path class="cls-5" d="M253.51,180.12c-5.04,3.49-6.94,7.92-7.42,9.23l40.49,40.52c1.52-1.16,2.85-2.52,4.01-4.08,1.16-1.57,2.12-3.37,2.92-5.35-11.87-12.04-28.69-29.06-40-40.32Z"/>
    <path class="cls-5" d="M269.82,175.61c-4.96,0-8.93.89-12.1,2.22l37.37,37.41c.71-3.21,1.09-6.79,1.09-10.75,0-1.48-.07-3.12-.25-4.84-7.39-7.49-15.94-16.13-23.72-23.95-.78-.05-1.58-.08-2.4-.08Z"/>
    <path class="cls-5" d="M294.02,190.97c-.81-2.24-1.91-4.43-3.38-6.43-2.58-3.5-6.08-5.97-10.45-7.41l13.83,13.84Z"/>
    <path class="cls-5" d="M240.49,213.43c-.15,1.73-.23,3.44-.19,5.08.93,2.62,5.69,13.55,21.16,16-7.36-7.43-14.83-14.96-20.96-21.08Z"/>
    <path class="cls-5" d="M244.48,194.27c-1,3.28-2.34,8.19-3.24,13.41l27.3,27.32c5.44-.06,10.01-.93,13.78-2.62-12.1-12.26-27.68-28.01-37.84-38.11Z"/>
  </g>
  <g>
    <path class="cls-2" d="M103.75,195.96c-1.46,3.5-2.62,8.56-3.16,13.48l27.38,27.4c.48.02.96.04,1.45.04.61,0,1.22-.01,1.85-.04,4.08-.2,7.79-.87,11.11-1.99-12.37-12.54-28.44-28.77-38.62-38.88Z"/>
    <path class="cls-2" d="M131.84,177.73c-5.27.21-9.68,1.51-13.32,3.31l39.79,39.83c1.78-3.86,2.78-8.36,2.93-13.43-8.46-8.58-19.56-19.82-29.4-29.71Z"/>
    <path class="cls-2" d="M114.42,183.45c-4.04,2.81-6.75,6.06-8.33,8.32l40.98,41.02c3.54-1.91,6.47-4.46,8.73-7.6-11.57-11.74-29.29-29.68-41.38-41.74Z"/>
    <path class="cls-2" d="M160.74,200.12c-.99-5.71-3.4-10.63-7.14-14.48-3.83-3.94-8.97-6.51-14.81-7.5l21.95,21.97Z"/>
    <path class="cls-2" d="M100.27,215.63c0,.56.02,1.1.06,1.63.23,3.76,6.79,14.61,19.81,18.34-7.01-7.08-14.05-14.16-19.87-19.97Z"/>
  </g>
  <polyline class="cls-3" points="275.25 99.76 226.23 99.76 222.94 139.46"/>
  <polyline class="cls-4" points="133.86 106.44 85.19 106.44 82.83 150.22"/>
</svg>