<?xml version="1.0" encoding="UTF-8"?>
<svg id="Layer_1" data-name="Layer 1" xmlns="http://www.w3.org/2000/svg" viewBox="0 0 399.64 353.99">
  <defs>
    <style>
      .cls-1 {
        fill: #3a3a3a;
      }

      .cls-2 {
        fill: #f7a348;
      }

      .cls-3 {
        fill: #7193ff;
      }

      .cls-4 {
        stroke: #7193ff;
      }

      .cls-4, .cls-5 {
        fill: none;
        stroke-linecap: round;
        stroke-miterlimit: 10;
        stroke-width: 3px;
      }

      .cls-5 {
        stroke: #f7a348;
      }
    </style>
  </defs>
  <circle class="cls-3" cx="311.93" cy="125.42" r="18.81"/>
  <circle class="cls-2" cx="171.52" cy="138.45" r="18.81"/>
  <path class="cls-1" d="M181.64,141.4l-16.06,4.38c-5.01-13.35-15.02-21.49-29.83-21.49-27.33,0-41.72,22.74-41.72,65.92h.42c6.88-17.73,24.41-28.79,42.76-28.79,26.7,0,46.73,21.07,46.73,46.73,0,27.54-22.32,48.81-50.69,48.81-35.46,0-55.7-29.62-55.7-69.67,0-31.71,11.06-77.6,58.2-77.6,22.53,0,38.59,10.64,45.89,31.71ZM132.83,242.58c19.61,0,34.42-14.81,34.42-33.58s-14.18-33.38-32.96-33.38-36.09,15.85-36.09,35.05c0,15.85,13.98,31.92,34.63,31.92Z"/>
  <path class="cls-1" d="M310.21,132.29c-9.18-8.76-18.57-12.52-29.83-12.52-29.62,0-41.09,30.04-41.72,59.03h.42c12.72-14.39,26.91-17.94,39.22-17.94,29,0,45.89,18.98,45.89,47.14s-20.03,50.07-50.69,50.07c-34.21,0-53.61-25.03-53.61-69.88,0-40.89,16.06-84.9,60.29-84.9,15.65,0,29.2,4.17,40.47,14.19l-10.43,14.81ZM273.49,242.22c19.61,0,32.12-13.35,32.12-33.58s-11.47-31.92-31.5-31.92c-15.64,0-30.46,11.06-34.84,25.87,0,21.28,11.68,39.63,34.21,39.63Z"/>
  <path class="cls-5" d="M108.72,141.45s-9.52,12.1-11.13,36.76c11.04-16.62,27.07-19.82,40.29-19.82"/>
  <path class="cls-4" d="M253.01,137.92s-9.1,14.29-10.44,32.58c9.82-9.92,25.82-13.66,39.01-13.07"/>
  <path class="cls-5" d="M107.2,226.43c-3.64-4.68-5.66-10.58-5.66-16.51,0-6.91,2.82-13.09,7.03-18.44"/>
  <path class="cls-4" d="M254.31,186.53s-8.99,6.26-12.21,16.41c-.06,3.34,1.01,14.99,6.21,23.17"/>
</svg>