<?xml version="1.0" encoding="UTF-8"?>
<svg id="Layer_1" data-name="Layer 1" xmlns="http://www.w3.org/2000/svg" viewBox="0 0 399.64 353.99">
  <defs>
    <style>
      .cls-1 {
        fill: #3a3a3a;
      }

      .cls-2 {
        fill: #f7a348;
      }

      .cls-3 {
        fill: #7193ff;
      }
    </style>
  </defs>
  <path class="cls-1" d="M133.32,111.65h-20.65l8.55,19.19,21.9,68.63h-44.01l-5.01,13.56h52.99l14.39,41.72h18.36l-46.52-143.1Z"/>
  <path class="cls-1" d="M286.55,104.97h-28.16l13.35,16.69h.42l21.28,71.13h-43.18l-5.22,17.32h53.61l13.35,44.64h21.28l-46.73-149.78Z"/>
  <polygon class="cls-2" points="121.22 130.84 99.11 199.47 94.1 213.03 81.38 254.75 66.36 254.75 112.67 111.65 121.22 130.84"/>
  <polygon class="cls-3" points="271.74 121.66 250.26 192.79 245.04 210.11 231.69 254.75 211.66 254.75 258.39 104.97 271.74 121.66"/>
</svg>