<?xml version="1.0" encoding="UTF-8"?>
<svg id="Layer_1" data-name="Layer 1" xmlns="http://www.w3.org/2000/svg" viewBox="0 0 399.64 353.99">
  <defs>
    <style>
      .cls-1 {
        fill: #3a3a3a;
      }

      .cls-2 {
        fill: #f7a348;
      }

      .cls-3 {
        fill: #7193ff;
      }

      .cls-4 {
        stroke: #7193ff;
      }

      .cls-4, .cls-5 {
        fill: none;
        stroke-linecap: round;
        stroke-miterlimit: 10;
        stroke-width: 3px;
      }

      .cls-5 {
        stroke: #f7a348;
      }
    </style>
  </defs>
  <circle class="cls-2" cx="98.56" cy="141.21" r="18.81"/>
  <circle class="cls-3" cx="234.67" cy="136.23" r="18.81"/>
  <path class="cls-1" d="M190.37,215.88v-52.9c0-17.55-2.2-28.04-9.51-36.58-6.83-8.29-17.31-13.16-38.77-13.16-29.5,0-50.94,12.68-53.39,33.89l17.8,2.92c2.68-14.14,14.14-21.95,33.88-21.95,21.46,0,31.45,8.05,31.45,29.26v6.09h-17.06c-24.58,0-39.97,3.23-49.99,9.02-2.29,1.33-4.31,2.8-6.09,4.39-.58.53-1.15,1.05-1.68,1.58-8.29,8.15-11.72,17.31-11.72,26.69,0,11.28,4.31,20.56,11.72,27.07.97.85,2.01,1.67,3.11,2.44,7.36,5.18,17.1,8.04,28.32,8.04s20.87-2.49,28.78-8.04c5.88-4.09,10.76-9.88,14.61-17.57l1.67,17.57.53,5.6h19.01c-2.68-8.53-2.68-18.77-2.68-24.38ZM171.84,185.89c0,22.44-16.08,41.93-39.24,41.93-15.85,0-26.82-8.04-26.82-21.69,0-18.54,16.83-28.28,48.28-28.28h17.79v8.04Z"/>
  <path class="cls-1" d="M317.94,220.52v-68.26c0-27.79-13.9-41.21-44.87-41.21-21.45,0-37.54,7.56-48.99,26.33l15.11,9.51c8.78-13.42,18.28-19.01,33.16-19.01,18.52,0,27.06,7.3,25.1,29.5-14.29,2.85-28.13,6-39.61,9.58-7.12,2.22-13.31,4.63-18.16,7.23-2.55,1.4-4.84,2.91-6.88,4.56-9.76,7.73-14.08,18.02-14.08,30.3s4.98,22.72,14.08,28.46c3.33,2.12,7.22,3.66,11.63,4.53,2.91.6,6.04.9,9.38.9s6.71-.3,10.03-.9c11.87-2.12,23.39-7.95,33.86-16.9l1.95,15.11h20.24l-1.95-19.74ZM296.98,208.08c-9.02,10.96-24.38,18.03-37.55,18.03s-19.74-7.3-19.74-19.01c0-9.02,3.66-16.57,11.21-20.97,9.51-5.36,22.92-9.02,46.08-13.65v35.6Z"/>
  <path class="cls-4" d="M273.54,131.06s22.66-2.08,20.41,23.98"/>
  <path class="cls-5" d="M168.89,160.02c.89-32.92-30.09-28.34-30.09-28.34"/>
  <path class="cls-5" d="M167.7,181.57s.48,23.8-16.04,36.69"/>
  <line class="cls-4" x1="293.37" y1="175.67" x2="293.37" y2="207.64"/>
</svg>