<?xml version="1.0" encoding="UTF-8"?>
<svg id="Layer_1" data-name="Layer 1" xmlns="http://www.w3.org/2000/svg" viewBox="0 0 399.64 353.99">
  <defs>
    <style>
      .cls-1 {
        fill: #3a3a3a;
      }

      .cls-2 {
        fill: #f7a348;
      }

      .cls-3 {
        fill: #7193ff;
      }
    </style>
  </defs>
  <path class="cls-2" d="M126.69,176.94c5.82,5.84,12.13,12.21,18.1,18.25-8.91-1.07-15.1-7.7-18.1-18.25Z"/>
  <path class="cls-2" d="M162.17,189.53c-2.91,3.02-6.54,4.86-10.86,5.52l-26.22-26.25c-.33-2.72-.5-5.61-.5-8.66,0-2.79.16-5.46.49-8,10.75,10.72,25.82,25.96,37.09,37.39Z"/>
  <path class="cls-2" d="M168.51,142.73l-16.43-16.44c8.23,1.37,14.07,7.32,16.43,16.44Z"/>
  <path class="cls-2" d="M169.38,150.3v16.49l-35.29-35.33c3.07-2.9,6.86-4.76,11.33-5.31,7.48,7.49,16.13,16.22,23.96,24.15Z"/>
  <path class="cls-2" d="M169.38,173.58v.16c-.92,4.77-2.35,8.75-4.28,11.93l-39.02-39.05c1.08-4.52,2.76-8.46,5-11.65,10.76,10.72,26.55,26.69,38.3,38.61Z"/>
  <path class="cls-3" d="M275.07,144.18l-17.92-17.94c8.08,1.21,13.65,6.28,17.81,16.23l.11,1.71Z"/>
  <path class="cls-3" d="M276.66,168.93l-37.94-37.96c3.29-2.77,7.26-4.43,11.76-4.88,8.05,8.08,17.16,17.29,25.05,25.29l1.13,17.55Z"/>
  <path class="cls-3" d="M229.8,174.92c6.03,6.06,12.57,12.66,18.7,18.86-9.28-1.49-15.8-7.9-18.7-18.86Z"/>
  <path class="cls-3" d="M267.33,189.6c-3.5,2.64-7.41,4.06-11.91,4.43l-26.99-27.01c-.21-2.09-.31-4.3-.31-6.63,0-3.44.25-6.66.72-9.63,11.45,11.44,27.35,27.53,38.49,38.84Z"/>
  <path class="cls-3" d="M277.19,177.09c-1.98,3.75-4.06,6.81-6.3,9.26l-40.88-40.92c1.25-4.43,3.11-8.18,5.5-11.16,12.35,12.32,30.26,30.46,41.63,42l.05.82Z"/>
  <path class="cls-1" d="M147.5,202.18c-17.53,0-27.33-16.48-27.33-42.14,0-23.99,10.01-40.89,28.37-40.89,13.98,0,23.36,9.81,25.24,25.66l15.02-2.71c-2.51-14.95-9.47-25.71-19.77-31.56-5.93-3.39-12.98-5.15-20.91-5.15s-14.66,1.83-20.61,5.15c-3.81,2.12-7.22,4.84-10.2,8.08-9.3,10.09-14.45,25.18-14.45,42.46s5.13,32.62,14.45,42.45c7.59,8,17.96,12.63,30.6,12.63,21.07,0,36.51-13.56,40.89-37.14l-15.02-2.71c-3.34,17.32-12.31,25.87-26.28,25.87Z"/>
  <path class="cls-1" d="M282.38,180.69c-7.72,14.6-16.69,20.65-29.41,20.65-18.78,0-30.04-14.18-30.04-40.88s11.89-41.72,30.25-41.72c12.51,0,20.65,6.05,26.49,20.02l15.02-5.84c-3.63-10.27-9.08-17.61-16.09-22.38-7.08-4.82-15.78-7.03-25.84-7.03s-18.53,2.42-25.61,7.03c-10.96,7.11-18.22,19.44-20.74,36.09-.66,4.32-1,8.94-1,13.83s.34,9.33,1,13.6c3.42,22.02,15.42,36.85,33.86,41.19,3.7.87,7.66,1.32,11.86,1.32,4.41,0,8.56-.43,12.45-1.32,13.79-3.12,24.39-11.83,32.2-26.63l-14.4-7.93Z"/>
</svg>