<?xml version="1.0" encoding="UTF-8"?>
<svg id="Layer_1" data-name="Layer 1" xmlns="http://www.w3.org/2000/svg" viewBox="0 0 399.64 353.99">
  <defs>
    <style>
      .cls-1 {
        fill: #3a3a3a;
      }

      .cls-2 {
        fill: #3a3a3a;
      }

      .cls-3 {
        fill: #f7a348;
      }

      .cls-4 {
        fill: #7193ff;
      }

      .cls-5 {
        stroke: #7193ff;
      }

      .cls-5, .cls-6 {
        fill: none;
        stroke-linecap: round;
        stroke-miterlimit: 10;
        stroke-width: 3px;
      }

      .cls-6 {
        stroke: #f7a348;
      }
    </style>
  </defs>
  <circle class="cls-4" cx="297.25" cy="188.9" r="18.81"/>
  <circle class="cls-3" cx="176.16" cy="185.63" r="18.81"/>
  <path class="cls-1" d="M261.58,214.76c-29,0-45.68-21.9-45.68-56.53s18.98-56.53,45.89-56.53c29.2,0,44.64,20.86,44.64,52.57,0,1.67,0,3.75-.21,6.47h-72.8c1.04,23.99,9.18,38.8,29.41,38.8,12.52,0,22.32-5.22,29.62-19.19l13.56,7.51c-10.43,19.61-26.28,26.91-44.43,26.91ZM233.84,147.58h55.07c-.21-18.98-10.01-31.5-27.12-31.5s-25.87,14.19-27.95,31.5Z"/>
  <path class="cls-6" d="M113.58,164.2s.73,16.44,9.06,25.52"/>
  <path class="cls-5" d="M237.46,164.79s.8,17.29,9.06,25.57"/>
  <path class="cls-2" d="M186.63,158.22v2.29h-76.97v2.5c0,29.2,17.94,37.55,31.71,37.55s23.78-7.93,28.16-20.44l15.44,3.13c-6.47,19.19-24.41,31.08-45.06,31.08-29.62,0-48.6-22.53-48.6-55.07s19.19-55.7,49.02-55.7,46.31,22.74,46.31,54.65ZM168.69,148.42c0-19.4-11.06-32.33-28.58-32.33-15.65,0-28.37,12.93-29.62,32.33h58.2Z"/>
</svg>