<?xml version="1.0" encoding="UTF-8"?>
<svg id="Layer_1" data-name="Layer 1" xmlns="http://www.w3.org/2000/svg" viewBox="0 0 399.64 353.99">
  <defs>
    <style>
      .cls-1 {
        fill: #3a3a3a;
      }

      .cls-2 {
        fill: #f7a348;
      }

      .cls-3 {
        fill: #7193ff;
      }
    </style>
  </defs>
  <path class="cls-2" d="M147.1,182.87c-1.61.93-3.06,1.93-4.33,3.04l-26.32-26.01c.37-2.2.86-4.27,1.46-6.22l29.19,29.19Z"/>
  <path class="cls-2" d="M156.75,177.38c-1.47.9-2.99,1.79-4.57,2.67l-32.05-32.05c.8-1.63,1.7-3.15,2.71-4.53l33.91,33.91Z"/>
  <path class="cls-2" d="M165.31,170.78c-1.15,1.2-2.45,2.33-3.86,3.4l-34.91-34.91c1.29-1.18,2.68-2.21,4.17-3.09l34.6,34.6Z"/>
  <path class="cls-2" d="M170.83,161.16c-.46,1.88-1.17,3.59-2.09,5.16l-32.56-32.56c1.91-.6,3.94-.99,6.07-1.18l28.58,28.58Z"/>
  <path class="cls-2" d="M171.47,153.9l-21.08-21.08c11.91,1.75,20.4,9.57,21.08,21.08Z"/>
  <g>
    <path class="cls-1" d="M187.77,135.55c-4.47-7.7-11.66-13.51-20.53-17.02-6.33-2.51-13.52-3.84-21.18-3.84s-15,1.31-21.22,3.84c-7.86,3.18-14.29,8.31-19.07,15.2-4.36,6.28-7.33,14.03-8.73,23.1l8.73,1.86,6.92,1.48c3.33-19.82,15.22-30.67,32.12-30.67s29.41,10.02,29.41,25.66-12.51,22.53-26.91,30.46c-6.29,3.51-10.33,8.05-12.17,14.91-.79,2.92-1.18,6.26-1.18,10.12v13.77h15.02v-13.35c0-4.63.81-7.56,4.04-10.54,2.44-2.26,6.29-4.55,12.23-7.61,11.02-5.62,18.25-11.82,22.52-18.86,3.5-5.75,5.02-12.07,5.02-19.11s-1.8-13.85-5.02-19.4Z"/>
    <rect class="cls-1" x="131.46" y="239.44" width="21.28" height="20.44"/>
  </g>
  <path class="cls-3" d="M272.5,162.48c-.78.93-1.57,1.85-2.38,2.76l-23.28-23.67c.51-1.15,1.02-2.22,1.54-3.21l24.12,24.12Z"/>
  <path class="cls-3" d="M277.77,155.19c-.72,1.24-1.53,2.45-2.39,3.63l-24.56-24.56c.88-1.27,1.79-2.36,2.74-3.28l24.21,24.21Z"/>
  <path class="cls-3" d="M281.36,146.22c-.32,1.6-.79,3.13-1.4,4.61l-22.61-22.61c1.39-.72,2.88-1.21,4.51-1.5l19.5,19.5Z"/>
  <path class="cls-3" d="M281.8,140.11l-13.68-13.68c8.03.68,13.19,5.83,13.68,13.68Z"/>
  <path class="cls-1" d="M248.58,236.37v24.2h22.94v-24.2h-22.94ZM286.4,112.45c-5.28-2.7-11.75-4.16-19.26-4.16s-14.21,1.34-19.94,4.16c-6.47,3.17-11.7,8.23-15.44,15.4-1.24,2.36-2.31,4.95-3.21,7.77l3.21,1.23,12.02,4.61c5.84-13.14,11.89-17.32,22.11-17.32,10.85,0,17.73,6.68,17.73,17.11,0,22.38-26.57,33.51-30.57,53.37-.33,1.62-.51,3.3-.51,5.04v12.31h15.44v-9.39c0-2.75.68-5.38,1.85-7.96,7.18-15.8,32.78-29.4,32.78-53.79,0-13.01-5.79-23.08-16.21-28.38Z"/>
  <rect class="cls-2" x="131.46" y="239.44" width="21.28" height="20.44"/>
  <rect class="cls-3" x="248.58" y="236.37" width="22.94" height="24.2"/>
</svg>