<?xml version="1.0" encoding="UTF-8"?>
<svg id="Layer_1" data-name="Layer 1" xmlns="http://www.w3.org/2000/svg" viewBox="0 0 399.64 353.99">
  <defs>
    <style>
      .cls-1 {
        fill: #3a3a3a;
      }

      .cls-2 {
        fill: #f7a348;
      }

      .cls-3 {
        fill: #7193ff;
      }
    </style>
  </defs>
  <path class="cls-3" d="M231.79,162.95c4.93,3.73,14.09,3.45,14.09,3.45l27.02-15.92c-6.88-10.64-14.6-14.19-25.24-14.19-11.47,0-18.15,5.84-18.15,15.02,0,0-2.65,7.91,2.28,11.64Z"/>
  <path class="cls-2" d="M165.91,151.36c-3.55-10.64-13.77-16.69-27.12-16.69s-22.53,5.63-22.53,15.44c0,8.34,5.63,13.35,16.27,15.02"/>
  <circle class="cls-3" cx="216.66" cy="209.67" r="18.81"/>
  <circle class="cls-2" cx="104.83" cy="204.56" r="18.81"/>
  <path class="cls-1" d="M180.93,148.23l-15.02,3.13c-3.55-10.64-13.77-16.69-27.12-16.69s-22.53,5.63-22.53,15.44c0,8.34,5.63,13.35,16.27,15.02,10.43,1.67,19.82,3.34,27.95,5.21,16.06,3.75,25.03,15.02,25.03,29.2,0,20.44-17.94,32.75-44.02,32.75-23.99,0-41.72-11.06-46.52-30.25l15.85-3.13c1.88,12.31,15.85,19.82,31.92,19.82s25.66-6.47,25.66-17.52c0-8.14-6.05-13.35-18.36-15.65l-19.61-3.55c-19.4-3.55-31.08-12.72-31.08-29.41,0-19.61,17.11-31.08,39.63-31.08s37.55,9.39,41.93,26.7Z"/>
  <path class="cls-1" d="M272.9,150.48c-6.88-10.64-14.6-14.19-25.24-14.19-11.47,0-18.15,5.84-18.15,15.02,0,24.62,60.29,8.97,60.29,51.73,0,20.03-16.27,31.92-39.84,31.92-19.19,0-31.71-7.3-41.3-21.9l13.14-9.6c7.93,11.89,15.44,16.9,28.58,16.9,14.19,0,21.9-6.26,21.9-16.48,0-27.74-59.87-11.06-59.87-51.94,0-17.94,14.6-30.04,35.67-30.04,17.11,0,29.41,6.05,37.76,19.82l-12.93,8.76Z"/>
</svg>