<?xml version="1.0" encoding="UTF-8"?>
<svg id="Layer_1" data-name="Layer 1" xmlns="http://www.w3.org/2000/svg" viewBox="0 0 399.64 353.99">
  <defs>
    <style>
      .cls-1 {
        fill: #3a3a3a;
      }

      .cls-2 {
        fill: #f7a348;
      }

      .cls-3 {
        fill: #7193ff;
      }
    </style>
  </defs>
  <path class="cls-1" d="M186.77,99.24l-44.68,124.73c-3.65,10.48-7.07,17.1-10.03,20.75-6.15,7.75-11.86,11.63-25.76,11.63-4.79,0-8.67-.92-13.46-2.05v-14.36c4.79,1.14,8.21,1.6,11.86,1.6,12.54,0,18.69-7.52,22.34-17.78l2.95-8.67.7-2.05-40.14-113.78h18.47l31.01,87.11.79-2.16,2.33-6.39,28.58-78.55h15.04Z"/>
  <path class="cls-1" d="M288.8,96.97l-28.96,88.46h-.46l-29.86-88.46h-21.43l41.95,115.6-2.28,6.61c-5.47,15.96-10.71,21.65-23.48,21.65-3.65,0-8.21-.45-13-1.37v16.19c4.79.92,9.8,1.37,15.96,1.37,22.8,0,31.01-10.48,42.87-45.6l38.99-114.45h-20.3Z"/>
  <polygon class="cls-3" points="259.38 185.43 250.04 212.57 208.09 96.97 229.52 96.97 259.38 185.43"/>
  <polygon class="cls-2" points="129.98 215.07 130.68 213.02 90.55 99.24 109.02 99.24 140.03 186.35 140.82 184.18 143.14 177.79 129.98 215.07"/>
</svg>